<?xml version="1.0" standalone="no"?>
<!DOCTYPE svg PUBLIC "-//W3C//DTD SVG 20010904//EN"
 "http://www.w3.org/TR/2001/REC-SVG-20010904/DTD/svg10.dtd">
<svg version="1.0" xmlns="http://www.w3.org/2000/svg"
 width="24.000000pt" height="24.000000pt" viewBox="0 0 24.000000 24.000000"
 preserveAspectRatio="xMidYMid meet">
<metadata>
Created by potrace 1.16, written by Peter Selinger 2001-2019
</metadata>
<g transform="translate(0.000000,24.000000) scale(0.010667,-0.010667)"
fill="#fff" stroke="none">
<path d="M632 1599 c-54 -27 -97 -79 -123 -149 -17 -44 -20 -73 -17 -145 3
-85 5 -94 43 -154 l40 -64 6 -146 c6 -151 16 -194 59 -249 30 -37 70 -62 103
-62 43 0 100 65 126 143 12 35 30 72 41 82 23 21 53 13 67 -18 6 -12 23 -47
37 -79 32 -69 94 -128 135 -128 69 0 126 101 143 256 5 52 8 98 5 101 -3 3
-19 2 -35 -2 -32 -7 -42 -31 -42 -106 0 -46 -33 -147 -56 -169 -14 -14 -19
-11 -49 24 -19 21 -39 55 -46 75 -28 86 -75 131 -140 131 -46 0 -101 -59 -125
-133 -10 -32 -29 -70 -42 -84 l-23 -25 -26 23 c-45 42 -56 83 -63 240 l-6 146
-39 64 c-39 62 -40 66 -40 155 0 83 2 94 30 139 17 28 45 56 66 67 l35 18 104
-36 c119 -41 143 -41 251 6 104 46 158 39 235 -28 56 -49 114 -85 114 -69 -1
31 -42 97 -83 134 -81 71 -186 81 -297 29 -70 -33 -129 -33 -207 -1 -92 37
-130 40 -181 14z"/>
<path d="M1144 1446 c-95 -30 -154 -111 -154 -212 1 -139 99 -231 237 -222 50
3 72 10 106 35 l44 30 61 -44 c51 -36 61 -48 57 -66 -5 -19 9 -32 89 -90 52
-37 99 -67 104 -67 15 0 74 89 70 107 -2 9 -43 46 -92 81 -78 57 -92 63 -109
52 -17 -10 -28 -6 -83 32 -45 30 -62 47 -57 58 3 8 8 45 11 81 3 54 0 73 -18
109 -30 59 -76 98 -134 115 -59 18 -78 18 -132 1z m152 -71 c121 -71 105 -243
-28 -299 -99 -41 -213 29 -225 137 -16 137 133 232 253 162z"/>
</g>
</svg>
