<?xml version="1.0" standalone="no"?>
<!DOCTYPE svg PUBLIC "-//W3C//DTD SVG 20010904//EN"
 "http://www.w3.org/TR/2001/REC-SVG-20010904/DTD/svg10.dtd">
<svg version="1.0" xmlns="http://www.w3.org/2000/svg"
 width="24.000000pt" height="24.000000pt" viewBox="0 0 24.000000 24.000000"
 preserveAspectRatio="xMidYMid meet">
<metadata>
Created by potrace 1.16, written by Peter Selinger 2001-2019
</metadata>
<g transform="translate(0.000000,24.000000) scale(0.004687,-0.004687)"
fill="#fff" stroke="none">
<path d="M2843 5106 c-147 -36 -313 -170 -381 -306 -54 -110 -65 -175 -59
-335 8 -201 34 -301 169 -644 115 -290 137 -311 333 -311 63 0 115 -3 115 -6
0 -17 163 -865 172 -897 15 -49 70 -112 122 -140 55 -29 174 -31 226 -3 49 26
88 64 112 110 13 25 50 199 104 484 46 244 84 446 84 448 0 2 51 4 113 4 198
1 221 22 335 312 129 326 172 499 172 692 0 108 -18 196 -46 227 -26 29 -85
25 -114 -6 -23 -25 -24 -28 -12 -95 26 -150 9 -286 -63 -510 -52 -160 -154
-421 -173 -442 -14 -17 -57 -18 -622 -18 -565 0 -608 1 -622 18 -21 22 -125
291 -177 455 -56 176 -74 281 -69 397 3 81 8 105 35 162 74 157 223 258 384
260 89 1 118 -7 234 -60 90 -41 109 -46 191 -50 103 -5 127 1 259 62 88 40 92
41 200 41 99 0 116 -3 169 -27 69 -33 109 -35 136 -8 50 50 34 107 -42 144
-80 38 -162 56 -263 56 -109 0 -184 -18 -285 -68 -66 -33 -84 -37 -150 -37
-66 0 -84 4 -151 37 -42 21 -103 44 -135 53 -70 18 -228 18 -301 1z m477
-1691 c-107 -108 -101 -109 -124 18 l-14 77 117 0 116 0 -95 -95z m344 23
c-35 -188 -17 -156 -203 -342 -151 -151 -169 -166 -174 -145 -3 13 -11 57 -18
97 l-12 73 194 195 c106 107 201 194 210 194 15 0 15 -6 3 -72z m-100 -528
c-7 -38 -20 -111 -30 -161 -21 -113 -42 -144 -104 -144 -50 0 -83 32 -94 91
-7 37 -7 38 116 161 67 67 123 123 124 123 1 0 -4 -31 -12 -70z"/>
<path d="M2967 4819 c-150 -24 -267 -160 -267 -309 0 -41 4 -52 26 -69 32 -25
55 -26 94 -6 22 11 31 24 35 53 12 76 17 86 53 123 34 34 91 59 135 59 49 0
76 86 40 128 -23 25 -55 31 -116 21z"/>
<path d="M990 3014 c-105 -28 -180 -72 -265 -158 -87 -88 -133 -165 -160 -271
-29 -112 -15 -322 31 -479 7 -27 13 -50 11 -51 -1 -1 -24 -7 -50 -14 -88 -21
-153 -80 -191 -173 -25 -58 -46 -253 -57 -532 -19 -441 -6 -551 82 -686 77
-120 232 -250 296 -250 45 0 73 30 73 79 0 37 -4 42 -82 104 -93 74 -144 136
-185 223 l-28 59 2 280 c2 277 14 481 34 603 12 70 40 112 89 132 57 24 73 0
172 -251 120 -302 182 -485 207 -608 36 -178 98 -256 205 -255 90 1 167 57
220 162 13 26 49 134 80 241 55 192 73 231 106 231 32 0 48 -36 104 -229 31
-107 68 -217 82 -245 78 -157 235 -210 333 -114 45 44 64 90 96 232 30 135 70
253 161 480 74 185 81 198 127 220 69 32 133 12 166 -53 11 -21 34 -50 51 -65
l32 -26 193 0 c192 0 193 0 198 -22 3 -13 31 -207 62 -433 36 -257 64 -426 75
-452 12 -27 33 -51 61 -70 37 -24 52 -28 114 -28 62 0 77 4 114 28 28 19 49
43 61 70 12 28 35 179 69 447 29 223 54 417 57 433 l6 27 224 0 c290 0 307 7
424 159 64 85 117 126 149 116 37 -12 68 -61 80 -127 20 -122 32 -326 34 -603
l2 -281 -38 -76 c-140 -284 -633 -498 -1352 -588 -245 -30 -415 -40 -707 -40
-539 0 -997 61 -1396 186 -126 40 -154 39 -177 -6 -38 -74 -7 -106 146 -154
308 -96 606 -149 976 -177 210 -15 833 -6 1033 15 880 92 1464 341 1627 694
53 113 58 181 45 556 -17 449 -33 566 -91 658 -44 69 -100 103 -170 103 -100
0 -184 -56 -326 -218 l-50 -57 -118 0 -117 0 0 104 c0 96 -2 107 -24 133 l-24
28 -462 0 -462 0 -24 -28 c-22 -26 -24 -37 -24 -133 l0 -104 -59 0 c-57 0 -59
1 -85 39 -48 69 -146 121 -228 121 -30 0 -39 4 -35 14 19 48 70 245 82 316 18
100 19 238 4 312 -6 29 -29 91 -51 138 -33 68 -56 100 -117 160 -121 119 -246
170 -416 170 -109 0 -175 -16 -289 -70 -122 -58 -172 -57 -304 3 -53 25 -118
50 -144 56 -65 15 -222 13 -288 -5z m365 -197 c172 -80 278 -80 450 1 l100 47
111 0 c107 0 112 -1 186 -38 54 -26 91 -54 128 -93 96 -105 126 -197 117 -354
-10 -170 -48 -295 -223 -747 -118 -304 -173 -469 -194 -588 -21 -114 -47 -148
-82 -107 -32 35 -57 102 -112 290 -63 218 -71 237 -120 280 -86 75 -216 66
-292 -20 -37 -42 -49 -72 -109 -283 -65 -228 -111 -313 -149 -275 -9 8 -29 74
-45 147 -36 161 -65 246 -193 573 -178 453 -223 617 -216 795 3 87 8 109 35
167 54 114 146 197 268 241 38 13 73 17 145 14 89 -3 101 -6 195 -50z m2425
-1002 l0 -55 -350 0 -350 0 0 55 0 55 350 0 350 0 0 -55z m-205 -237 c-2 -13
-27 -201 -55 -417 -28 -217 -53 -399 -56 -403 -7 -11 -51 -10 -58 0 -3 5 -30
188 -61 408 -30 219 -57 407 -59 417 -4 16 8 17 145 17 l149 0 -5 -22z"/>
<path d="M1063 2711 c-125 -43 -213 -164 -213 -291 0 -63 23 -90 78 -90 50 0
73 25 83 90 4 28 17 64 29 80 26 37 88 70 130 70 67 0 102 79 59 134 -17 22
-28 26 -67 26 -26 -1 -70 -9 -99 -19z"/>
</g>
</svg>
