<?xml version="1.0" standalone="no"?>
<!DOCTYPE svg PUBLIC "-//W3C//DTD SVG 20010904//EN"
 "http://www.w3.org/TR/2001/REC-SVG-20010904/DTD/svg10.dtd">
<svg version="1.0" xmlns="http://www.w3.org/2000/svg"
 width="5.000000pt" height="5.000000pt" viewBox="0 0 140.000000 140.000000"
 preserveAspectRatio="xMidYMid meet">
<metadata>
Created by potrace 1.10, written by Peter Selinger 2001-2011
</metadata>
<g transform="translate(0.000000,140.000000) scale(0.100000,-0.100000)"
fill="#000000" stroke="none">
<path d="M502 1114 c-48 -33 -64 -105 -41 -173 19 -53 77 -143 84 -131 4 6 -7
34 -24 61 -60 97 -65 178 -14 219 34 26 98 26 138 0 17 -11 41 -20 55 -20 14
0 39 9 55 20 43 29 109 27 140 -4 49 -49 43 -119 -16 -215 -21 -33 -29 -55
-23 -61 16 -16 94 144 94 191 0 47 -21 91 -52 113 -34 24 -111 20 -159 -6
l-39 -23 -39 23 c-48 26 -125 30 -159 6z"/>
<path d="M720 1044 c-54 -29 -85 -30 -127 -4 -18 11 -35 15 -38 10 -10 -15 57
-50 95 -50 39 0 122 37 128 58 5 16 -5 14 -58 -14z"/>
<path d="M184 785 c-12 -31 19 -158 57 -235 65 -129 201 -237 339 -269 64 -15
186 -13 249 4 144 38 265 135 330 265 38 77 69 204 57 235 -8 22 -326 22 -326
0 0 -13 24 -15 154 -15 l154 0 -5 -42 c-25 -199 -169 -366 -362 -420 -290 -80
-587 119 -624 420 l-5 42 154 0 c130 0 154 2 154 15 0 22 -318 22 -326 0z"/>
<path d="M530 730 l0 -50 170 0 170 0 0 50 0 50 -170 0 -170 0 0 -50z m320 0
l0 -30 -150 0 -150 0 0 30 0 30 150 0 150 0 0 -30z"/>
<path d="M554 646 c-8 -20 -1 -47 11 -45 6 1 8 11 7 22 -3 17 0 19 27 14 42
-9 251 4 251 15 0 4 -65 8 -145 8 -118 0 -147 -3 -151 -14z"/>
<path d="M685 593 c-148 -23 -218 -43 -152 -43 15 0 30 -7 33 -15 9 -22 26
-19 20 3 -6 16 4 20 83 30 49 7 103 15 119 18 26 5 31 3 34 -17 4 -24 4 -24
16 4 6 15 18 27 27 27 8 0 15 5 15 10 0 13 -7 12 -195 -17z"/>
<path d="M720 529 c-173 -25 -190 -28 -190 -41 0 -6 9 -8 21 -5 14 4 23 -1 29
-16 l9 -22 7 23 c3 12 9 22 13 22 7 0 117 17 170 26 28 4 33 3 28 -10 -3 -8
-2 -18 4 -22 6 -3 13 3 16 14 2 11 14 23 25 25 18 5 18 29 0 26 -4 -1 -63 -10
-132 -20z"/>
<path d="M765 465 c-5 -2 -56 -9 -112 -15 -57 -7 -103 -16 -103 -21 0 -5 8 -9
19 -9 10 0 21 -9 24 -19 2 -11 28 -31 57 -46 l51 -26 52 29 c40 23 53 35 55
57 2 17 11 29 23 32 33 9 21 23 -18 22 -21 0 -42 -2 -48 -4z m27 -41 c-3 -18
-17 -32 -48 -47 l-44 -21 -45 22 c-69 33 -59 47 43 59 48 5 90 11 93 11 3 1 4
-10 1 -24z"/>
</g>
</svg>
