<?xml version="1.0" standalone="no"?>
<!DOCTYPE svg PUBLIC "-//W3C//DTD SVG 20010904//EN"
 "http://www.w3.org/TR/2001/REC-SVG-20010904/DTD/svg10.dtd">
<svg version="1.0" xmlns="http://www.w3.org/2000/svg"
 width="24.000000pt" height="24.000000pt" viewBox="0 0 24.000000 24.000000"
 preserveAspectRatio="xMidYMid meet">
<metadata>
Created by potrace 1.16, written by Peter Selinger 2001-2019
</metadata>
<g transform="translate(0.000000,24.000000) scale(0.037500,-0.037500)"
fill="#fff" stroke="none">
<path d="M250 565 c0 -15 -7 -28 -17 -32 -10 -3 -29 -14 -44 -24 -17 -12 -30
-15 -40 -8 -25 16 -34 10 -64 -45 -28 -52 -29 -55 -12 -74 23 -25 23 -99 0
-124 -17 -19 -16 -22 12 -74 30 -55 39 -61 64 -45 10 7 23 4 40 -8 15 -10 34
-21 44 -24 10 -4 17 -17 17 -32 0 -24 2 -25 70 -25 68 0 70 1 70 25 0 18 9 28
35 41 20 9 38 20 41 25 3 5 15 4 26 -2 19 -10 25 -8 45 17 39 49 48 82 29 103
-22 24 -21 99 1 123 17 19 16 22 -12 74 -30 55 -39 61 -64 45 -10 -7 -23 -4
-40 8 -15 10 -34 21 -43 24 -11 4 -18 17 -18 32 0 24 -2 25 -70 25 -68 0 -70
-1 -70 -25z m120 -19 c0 -17 7 -27 23 -32 12 -3 34 -15 49 -26 17 -12 36 -16
50 -13 20 5 27 -1 46 -34 21 -37 21 -40 6 -49 -25 -14 -26 -130 -1 -143 16 -9
16 -12 -5 -50 -19 -33 -27 -39 -46 -34 -14 3 -33 -2 -50 -13 -15 -11 -37 -23
-49 -26 -16 -5 -23 -15 -23 -32 0 -22 -4 -24 -50 -24 -46 0 -50 2 -50 24 0 17
-7 27 -22 32 -13 3 -35 15 -50 26 -17 11 -36 16 -50 13 -19 -5 -27 1 -46 34
-21 38 -21 41 -5 50 25 13 24 129 0 143 -16 8 -15 12 5 49 19 33 27 39 46 34
14 -3 33 2 50 13 15 11 37 23 50 26 15 5 22 15 22 32 0 22 4 24 50 24 46 0 50
-2 50 -24z"/>
<path d="M240 468 c-52 -26 -90 -89 -90 -148 0 -59 38 -122 90 -148 56 -28
104 -28 160 1 52 25 90 88 90 147 0 20 -10 56 -22 80 -26 52 -89 90 -148 90
-20 0 -56 -10 -80 -22z m150 -20 c54 -37 75 -73 75 -128 0 -82 -63 -145 -145
-145 -82 0 -145 63 -145 145 0 78 70 150 145 150 22 0 51 -9 70 -22z"/>
<path d="M280 385 c0 -20 -5 -25 -25 -25 -22 0 -25 -4 -25 -40 0 -36 3 -40 25
-40 20 0 25 -5 25 -25 0 -22 4 -25 40 -25 36 0 40 3 40 25 0 20 5 25 25 25 23
0 25 4 25 40 0 36 -2 40 -25 40 -20 0 -25 5 -25 25 0 23 -4 25 -40 25 -36 0
-40 -2 -40 -25z"/>
</g>
</svg>
