<?xml version="1.0" standalone="no"?>
<!DOCTYPE svg PUBLIC "-//W3C//DTD SVG 20010904//EN"
 "http://www.w3.org/TR/2001/REC-SVG-20010904/DTD/svg10.dtd">
<svg version="1.0" xmlns="http://www.w3.org/2000/svg"
 width="24.000000pt" height="22.000000pt" viewBox="0 0 24.000000 22.000000"
 preserveAspectRatio="xMidYMid meet">
<metadata>
Created by potrace 1.16, written by Peter Selinger 2001-2019
</metadata>
<g transform="translate(0.000000,22.000000) scale(0.004687,-0.004297)"
fill="#fff" stroke="none">
<path d="M1735 4941 c-87 -40 -135 -120 -135 -223 1 -142 97 -238 240 -238
144 0 240 96 240 240 0 104 -53 187 -142 224 -52 22 -153 20 -203 -3z m155
-171 c11 -11 20 -33 20 -50 0 -17 -9 -39 -20 -50 -11 -11 -33 -20 -50 -20 -17
0 -39 9 -50 20 -11 11 -20 33 -20 50 0 17 9 39 20 50 11 11 33 20 50 20 17 0
39 -9 50 -20z"/>
<path d="M2312 4940 c-67 -41 -72 -60 -72 -300 0 -197 2 -218 20 -248 24 -39
75 -72 113 -72 l27 0 0 -223 0 -223 -60 -43 c-69 -48 -126 -71 -179 -71 -48 0
-105 16 -130 38 l-21 17 21 55 c31 80 25 222 -13 302 -59 126 -183 215 -313
226 -64 5 -69 7 -114 52 -62 62 -127 85 -226 77 l-71 -5 -48 55 c-80 91 -171
133 -286 133 -113 0 -204 -42 -283 -129 -55 -63 -87 -142 -90 -226 l-2 -62
-47 -17 c-86 -30 -166 -147 -169 -245 0 -19 -12 -35 -42 -56 -95 -69 -147
-177 -147 -304 0 -172 94 -312 249 -372 26 -10 45 -23 44 -31 -1 -7 -17 -65
-34 -128 -29 -105 -32 -131 -36 -300 -4 -144 -1 -206 11 -280 42 -241 152
-462 329 -658 109 -121 136 -200 137 -402 0 -176 43 -458 105 -695 109 -417
268 -645 450 -645 31 0 69 7 84 15 58 29 122 117 192 260 61 127 189 457 189
490 0 8 -29 23 -68 36 -37 12 -72 24 -78 26 -7 3 -23 -29 -39 -79 -105 -316
-234 -578 -285 -578 -37 0 -97 68 -148 168 -132 256 -211 603 -233 1012 -15
291 -33 342 -185 515 -199 229 -282 433 -291 722 -6 184 6 280 53 423 109 327
346 567 633 641 97 25 252 26 347 3 85 -21 219 -82 284 -129 26 -19 74 -47
106 -63 53 -24 70 -27 164 -27 117 0 151 11 266 86 l61 39 44 -20 c41 -18 66
-20 428 -20 l384 0 87 -87 c143 -143 237 -309 292 -510 31 -118 37 -383 10
-513 -42 -204 -128 -375 -269 -535 -158 -180 -177 -232 -192 -525 -21 -394
-99 -745 -223 -998 -48 -97 -119 -182 -153 -182 -84 0 -234 365 -451 1100 -30
101 -66 203 -79 226 -91 156 -337 145 -419 -18 -22 -45 -145 -445 -150 -486 0
-8 29 -23 77 -38 44 -14 80 -24 82 -22 1 2 33 107 69 233 70 238 88 275 136
275 47 0 67 -39 125 -240 212 -733 378 -1114 516 -1185 44 -24 132 -19 187 9
230 118 420 668 452 1314 5 100 12 186 14 191 3 4 31 -1 63 -11 83 -29 207
-22 284 15 73 35 139 94 169 150 21 39 29 46 63 51 89 14 185 97 208 178 7 23
15 46 19 50 3 5 33 13 65 19 203 37 340 226 306 421 -21 120 -95 229 -187 276
l-38 19 3 62 c4 102 -39 192 -117 243 -35 23 -40 32 -45 77 -13 113 -100 232
-207 284 -89 43 -189 51 -310 23 -22 -5 -32 4 -78 64 l-53 70 33 0 c72 1 161
66 192 142 13 30 16 82 16 266 l0 229 78 5 c86 5 138 27 212 88 82 68 62 65
448 70 335 5 354 6 368 24 11 16 14 63 14 218 0 185 -1 199 -20 218 -19 19
-33 20 -440 20 l-420 0 0 -80 0 -80 360 0 360 0 0 -79 0 -80 -317 -3 -318 -3
-52 -27 c-28 -15 -71 -45 -97 -67 -31 -27 -61 -43 -96 -50 -34 -7 -292 -11
-785 -11 l-735 0 0 160 0 160 765 0 765 0 0 80 0 80 -792 0 c-774 0 -794 -1
-826 -20z m-1265 -421 c56 -27 99 -80 118 -146 9 -30 24 -57 35 -63 36 -19 85
-12 125 20 51 40 93 40 140 -1 19 -17 35 -37 35 -44 0 -7 9 -23 19 -36 18 -22
26 -24 118 -24 92 0 103 -2 141 -28 67 -44 96 -97 100 -181 2 -48 -1 -77 -10
-88 -12 -17 -17 -16 -88 11 -111 43 -213 61 -348 61 -328 0 -617 -166 -821
-470 -54 -81 -59 -85 -87 -79 -103 21 -174 111 -174 220 0 87 47 156 134 197
58 28 70 50 61 117 -11 92 44 155 122 140 44 -8 86 9 103 40 12 23 11 44 -9
120 -14 56 -4 109 33 163 58 86 162 115 253 71z m1673 -439 l0 -240 -35 0
c-57 0 -101 23 -114 60 -7 20 -11 108 -11 226 l0 194 80 0 80 0 0 -240z m320
0 l0 -240 -80 0 -80 0 0 240 0 240 80 0 80 0 0 -240z m320 0 l0 -240 -80 0
-80 0 0 240 0 240 80 0 80 0 0 -240z m320 46 c0 -118 -4 -206 -11 -226 -13
-37 -57 -60 -114 -60 l-35 0 0 240 0 240 80 0 80 0 0 -194z m280 -757 c79 -40
120 -111 120 -212 0 -74 9 -89 71 -116 87 -37 111 -101 64 -176 -13 -22 -25
-53 -25 -68 0 -32 39 -77 67 -77 85 0 181 -80 202 -167 26 -108 -34 -205 -148
-239 -46 -14 -62 -14 -105 -4 -93 22 -133 -13 -122 -107 11 -95 -31 -143 -124
-143 -68 0 -95 -17 -111 -70 -26 -87 -119 -159 -205 -160 -40 0 -104 17 -104
27 0 3 23 30 51 61 161 176 270 401 314 645 14 78 16 134 12 280 -4 161 -8
195 -35 297 -16 63 -41 141 -56 174 -14 32 -26 62 -26 67 0 22 107 15 160 -12z"/>
<path d="M240 4800 l0 -80 80 0 80 0 0 80 0 80 -80 0 -80 0 0 -80z"/>
<path d="M4375 4221 c-87 -40 -135 -120 -135 -223 1 -142 97 -238 240 -238
144 0 240 96 240 240 0 104 -53 187 -142 224 -52 22 -153 20 -203 -3z m155
-171 c11 -11 20 -33 20 -50 0 -17 -9 -39 -20 -50 -11 -11 -33 -20 -50 -20 -17
0 -39 9 -50 20 -11 11 -20 33 -20 50 0 17 9 39 20 50 11 11 33 20 50 20 17 0
39 -9 50 -20z"/>
<path d="M4000 3760 l0 -80 80 0 80 0 0 80 0 80 -80 0 -80 0 0 -80z"/>
<path d="M1168 3611 c-110 -71 -238 -198 -314 -311 -84 -127 -98 -162 -84
-206 13 -40 35 -54 83 -54 40 0 60 19 107 104 74 131 179 240 319 331 81 53
98 79 80 132 -23 71 -85 72 -191 4z"/>
<path d="M4720 3280 l0 -80 80 0 80 0 0 80 0 80 -80 0 -80 0 0 -80z"/>
</g>
</svg>
