<?xml version="1.0" standalone="no"?>
<!DOCTYPE svg PUBLIC "-//W3C//DTD SVG 20010904//EN"
 "http://www.w3.org/TR/2001/REC-SVG-20010904/DTD/svg10.dtd">
<svg version="1.0" xmlns="http://www.w3.org/2000/svg"
 width="225.000000pt" height="225.000000pt" viewBox="0 0 225.000000 225.000000"
 preserveAspectRatio="xMidYMid meet">
<metadata>
Created by potrace 1.10, written by Peter Selinger 2001-2011
</metadata>
<g transform="translate(0.000000,225.000000) scale(0.100000,-0.100000)"
fill="#000000" stroke="none">
<path d="M570 2076 c-111 -31 -221 -119 -265 -212 -51 -107 -56 -299 -12 -433
11 -35 38 -91 59 -125 95 -153 95 -150 101 -361 3 -104 13 -233 21 -285 30
-178 111 -364 200 -456 51 -53 53 -54 111 -54 56 0 60 2 101 44 73 77 115 231
137 503 13 150 14 157 41 179 34 30 77 31 112 1 25 -22 27 -30 40 -182 27
-305 66 -441 149 -513 30 -27 43 -32 88 -32 43 0 59 6 94 33 101 79 173 219
207 409 17 90 36 343 36 467 0 82 17 129 75 205 38 50 84 157 100 232 27 127
13 290 -31 377 -33 63 -121 143 -197 178 -71 34 -73 34 -212 33 -136 0 -142
-1 -238 -37 -134 -51 -186 -50 -338 3 -107 37 -120 40 -224 39 -60 0 -130 -6
-155 -13z m323 -92 c136 -49 168 -56 257 -51 62 3 103 12 150 31 105 42 219
62 291 48 203 -38 309 -165 309 -371 0 -139 -23 -204 -135 -384 l-48 -77 -8
-193 c-4 -105 -11 -221 -14 -257 -23 -231 -117 -444 -217 -496 -27 -14 -32
-14 -54 0 -65 43 -117 240 -133 508 -7 110 -11 132 -32 162 -36 53 -90 79
-153 74 -100 -8 -155 -77 -156 -193 0 -82 -25 -279 -46 -362 -9 -38 -28 -92
-41 -121 -61 -130 -128 -97 -229 114 -73 153 -104 324 -104 582 0 150 -1 154
-30 212 -16 32 -48 86 -69 120 -65 101 -86 176 -86 310 1 102 3 121 26 170 49
105 116 159 239 193 85 23 187 16 283 -19z m935 -35 c41 -36 82 -96 82 -118 0
-9 -13 5 -28 30 -29 50 -91 112 -134 135 -16 8 -28 17 -28 20 0 9 74 -36 108
-67z m-1332 49 c-45 -26 -109 -89 -134 -130 -9 -16 -20 -28 -25 -28 -13 0 25
59 63 98 37 37 88 72 105 72 6 0 2 -6 -9 -12z m1419 -560 c-8 -36 -50 -115
-101 -190 -18 -26 -34 -53 -37 -60 -2 -7 -8 -10 -12 -6 -4 3 20 47 53 96 32
50 68 113 78 141 21 58 29 66 19 19z m-1490 -163 c39 -59 69 -124 61 -132 -2
-3 -14 17 -27 44 -12 26 -30 59 -39 73 -29 41 -77 133 -84 160 -3 14 7 -1 23
-33 17 -32 46 -83 66 -112z m790 -369 c17 -17 38 -67 31 -74 -3 -3 -10 7 -16
22 -13 34 -27 49 -68 70 -18 9 -32 19 -32 21 0 9 70 -23 85 -39z m-141 17
c-17 -8 -43 -34 -59 -57 -15 -22 -25 -33 -21 -23 3 10 6 22 6 27 0 18 63 70
83 69 19 0 18 -2 -9 -16z m-382 -668 c23 -26 51 -51 62 -55 20 -8 20 -9 1 -9
-40 -1 -102 75 -157 189 -56 118 -55 137 2 24 28 -56 69 -123 92 -149z m243
108 c-25 -87 -81 -173 -113 -173 -8 0 1 14 21 33 39 35 81 118 93 182 4 22 9
34 11 28 3 -7 -3 -39 -12 -70z m692 -36 c-28 -47 -63 -84 -51 -53 3 9 9 16 13
16 3 0 12 15 20 33 17 38 32 59 39 53 2 -3 -7 -25 -21 -49z m-277 -51 c0 -8
18 -30 40 -50 43 -39 40 -50 -4 -15 -34 26 -75 102 -46 84 6 -3 10 -12 10 -19z
m190 -56 c-19 -16 -44 -30 -55 -30 -16 0 -13 4 10 16 17 8 37 22 45 30 8 8 19
14 25 14 5 0 -6 -14 -25 -30z"/>
<path d="M631 1866 c-49 -18 -111 -74 -132 -120 -37 -83 -20 -239 36 -311 30
-40 45 -43 70 -16 16 19 16 22 -14 82 -25 51 -31 74 -31 128 0 88 21 122 97
159 62 29 78 56 47 79 -21 15 -28 15 -73 -1z m-6 -51 c-11 -8 -30 -24 -42 -36
-22 -21 -30 -16 -15 8 7 11 61 43 72 43 3 -1 -4 -7 -15 -15z"/>
<path d="M931 1681 c-31 -60 -69 -100 -123 -127 -80 -40 -77 -68 11 -120 32
-18 64 -48 81 -75 52 -80 61 -89 81 -89 12 0 27 12 37 31 39 71 75 111 127
140 74 42 75 66 3 113 -60 38 -84 63 -122 124 -35 57 -67 58 -95 3z m88 -51
c19 -31 51 -63 86 -86 30 -20 55 -40 55 -45 0 -4 -15 -18 -32 -30 -52 -35 -88
-71 -114 -111 -13 -21 -31 -38 -39 -38 -8 0 -23 17 -34 39 -21 40 -59 77 -111
108 -17 9 -30 23 -30 29 0 7 25 30 56 51 32 22 64 54 77 78 38 70 46 70 86 5z"/>
<path d="M934 1591 c-51 -36 -77 -76 -70 -106 7 -29 92 -105 117 -105 10 0 38
19 63 43 64 60 63 89 -4 151 -27 25 -53 46 -58 46 -5 0 -27 -13 -48 -29z m93
-142 l-48 -47 -49 49 -48 48 46 48 47 48 50 -49 50 -49 -48 -48z"/>
<path d="M761 1286 c-7 -8 -11 -25 -9 -38 2 -19 -2 -23 -29 -26 -66 -7 -71
-68 -5 -74 26 -2 36 -7 34 -17 -2 -8 -1 -25 3 -38 5 -20 11 -24 38 -21 29 3
32 6 35 40 3 35 5 37 40 40 34 3 37 6 37 33 0 27 -3 30 -37 33 -35 3 -37 5
-40 40 -3 31 -7 37 -29 40 -14 2 -31 -4 -38 -12z m61 -73 l28 -27 -31 -32 -32
-33 -22 32 -22 32 21 27 c12 15 23 27 25 27 3 1 18 -11 33 -26z"/>
<path d="M1952 1158 c-7 -7 -12 -24 -12 -39 0 -24 -5 -28 -31 -31 -64 -6 -64
-70 -1 -76 26 -3 31 -8 34 -34 6 -63 70 -63 76 0 3 26 8 31 34 34 63 6 63 70
-1 76 -26 3 -31 7 -31 31 0 30 -16 51 -40 51 -9 0 -21 -5 -28 -12z m60 -136
l-30 -28 -30 27 -30 27 30 29 29 30 31 -29 30 -28 -30 -28z"/>
<path d="M237 753 c-4 -3 -7 -21 -7 -39 0 -31 -2 -33 -37 -36 -31 -2 -39 -7
-41 -26 -5 -34 17 -55 49 -48 26 5 28 3 31 -31 6 -70 70 -71 76 -1 3 33 6 36
34 34 63 -3 63 66 -1 72 -26 3 -31 7 -31 31 0 15 -5 32 -12 39 -13 13 -50 16
-61 5z m56 -82 l37 -28 -32 -27 -32 -26 -28 27 c-27 26 -27 27 -8 40 11 8 20
21 20 29 0 19 2 18 43 -15z"/>
<path d="M1888 493 c-8 -10 -23 -32 -33 -49 -10 -17 -39 -45 -66 -63 -66 -43
-66 -69 -3 -106 29 -17 58 -45 77 -76 41 -66 70 -67 112 -1 17 26 51 60 77 77
59 37 64 67 16 93 -41 22 -88 69 -110 110 -19 36 -47 42 -70 15z m60 -57 c6
-13 31 -41 56 -62 25 -21 46 -43 46 -50 0 -6 -18 -24 -40 -39 -22 -15 -40 -30
-40 -34 0 -3 -11 -19 -24 -35 l-23 -30 -72 72 c-39 39 -71 73 -71 76 0 2 16
14 36 26 19 13 47 40 61 61 29 44 55 50 71 15z"/>
<path d="M1869 377 c-16 -16 -29 -38 -29 -49 0 -25 52 -78 77 -78 28 0 60 26
72 60 9 27 7 34 -20 65 -36 41 -61 41 -100 2z m78 -78 l-30 -31 -29 30 -30 29
29 30 28 29 31 -29 31 -28 -30 -30z"/>
</g>
</svg>
