<?xml version="1.0" standalone="no"?>
<!DOCTYPE svg PUBLIC "-//W3C//DTD SVG 20010904//EN"
 "http://www.w3.org/TR/2001/REC-SVG-20010904/DTD/svg10.dtd">
<svg version="1.0" xmlns="http://www.w3.org/2000/svg"
 width="300.000000pt" height="300.000000pt" viewBox="0 0 300.000000 300.000000"
 preserveAspectRatio="xMidYMid meet">
<metadata>
Created by potrace 1.10, written by Peter Selinger 2001-2011
</metadata>
<g transform="translate(0.000000,300.000000) scale(0.100000,-0.100000)"
fill="#000000" stroke="none">
<path d="M1640 2967 c-169 -60 -304 -198 -360 -369 -22 -64 -25 -69 -109 -131
-48 -36 -113 -93 -144 -127 -59 -64 -63 -64 -105 -26 l-24 21 -28 -34 -29 -34
55 -45 c30 -24 54 -50 54 -57 0 -22 -142 -185 -160 -185 -18 0 -210 157 -210
171 0 4 37 50 81 103 67 79 84 94 96 85 11 -10 20 -5 43 22 21 26 26 37 17 45
-7 6 -54 46 -104 89 -51 42 -93 80 -93 83 0 3 12 19 28 35 l27 28 -34 28 -35
28 -33 -40 c-19 -22 -42 -51 -53 -65 l-20 -24 -36 28 c-87 68 -81 56 -44 103
l33 41 -23 25 c-13 14 -29 25 -35 25 -6 0 -78 -79 -159 -176 l-148 -176 31
-32 c28 -27 34 -29 44 -15 7 8 22 28 34 43 l22 28 55 -48 54 -48 -29 -36 c-16
-19 -41 -50 -56 -68 l-26 -33 29 -30 29 -31 30 36 31 35 199 -170 c135 -115
209 -171 230 -175 31 -6 32 -6 24 -52 -21 -126 -2 -308 47 -442 l25 -71 -38
-37 c-59 -58 -78 -104 -78 -192 1 -90 23 -139 87 -194 42 -36 118 -66 167 -66
23 0 29 -7 45 -53 10 -28 36 -82 58 -120 33 -56 42 -66 56 -57 25 14 52 36 52
42 0 3 -16 32 -35 64 -20 33 -47 95 -61 139 -23 71 -27 101 -31 275 -7 231 4
333 45 422 26 58 92 148 113 156 5 2 29 -13 53 -33 l44 -36 28 36 c26 35 26
36 8 50 -63 45 -62 41 -15 65 74 37 162 50 361 50 127 0 205 5 248 15 71 17
164 61 212 101 31 27 34 27 87 16 119 -25 222 -105 269 -207 41 -88 47 -161
42 -509 -5 -314 -5 -323 -31 -401 -36 -108 -88 -193 -176 -287 -174 -186 -431
-299 -608 -268 -146 25 -338 127 -443 234 -24 25 -49 46 -55 46 -6 0 -24 -13
-39 -29 l-27 -29 65 -57 c36 -32 79 -67 95 -79 l31 -21 0 -180 0 -180 45 0 45
0 0 152 0 152 73 -34 c100 -46 181 -65 277 -65 96 0 177 19 278 65 l72 34 0
-155 0 -154 45 0 45 0 0 183 0 184 43 30 c116 85 210 197 273 327 24 49 44 95
44 101 0 7 22 15 51 19 65 9 114 34 161 83 49 51 68 99 68 175 0 77 -33 153
-82 193 l-35 27 23 58 c44 107 58 187 58 330 1 178 -35 332 -106 448 l-20 32
-31 -22 c-18 -12 -33 -22 -35 -23 -1 -1 13 -35 33 -76 58 -123 70 -185 70
-354 0 -173 -13 -231 -78 -365 l-42 -85 -5 225 c-5 188 -9 232 -25 270 -28 69
-82 146 -133 191 -51 45 -154 99 -189 99 -13 0 -23 2 -23 4 0 2 16 29 35 61
42 71 74 163 83 244 l7 61 74 -64 c41 -35 88 -82 106 -104 l32 -41 36 26 36
26 -29 38 c-41 50 -129 130 -204 184 -58 41 -63 48 -84 113 -54 168 -191 308
-358 367 -70 25 -199 36 -161 14 31 -18 18 -30 -33 -28 -52 3 -62 11 -32 28
36 21 -92 11 -158 -12z m321 -73 c142 -42 253 -136 316 -270 33 -70 37 -86 41
-183 3 -90 1 -116 -18 -171 -51 -153 -171 -273 -320 -321 -55 -18 -103 -22
-305 -29 -255 -8 -295 -15 -392 -71 l-39 -22 -67 54 c-37 29 -67 56 -67 59 0
4 11 17 25 30 14 13 25 26 25 30 0 4 -29 30 -65 59 l-65 53 0 53 0 54 82 81
c81 81 197 165 295 214 64 32 197 76 229 76 25 0 28 8 18 59 -4 19 -13 31 -22
31 -25 0 -183 -50 -224 -71 -45 -23 -46 -17 -12 44 110 198 355 303 565 241z
m-1589 -270 c4 -5 -13 -9 -37 -9 -47 0 -47 1 -1 53 l21 24 6 -30 c3 -16 8 -33
11 -38z m1011 -73 c-2 -6 -84 -51 -94 -51 -5 0 -5 8 1 18 5 9 16 34 25 56 l15
39 27 -29 c15 -16 26 -31 26 -33z m-782 -5 c16 -17 10 -27 -10 -16 -31 16 -39
13 -92 -37 -40 -38 -48 -42 -39 -21 9 19 9 31 1 46 -16 30 -15 31 23 25 27 -4
39 0 67 25 33 30 34 30 37 9 2 -12 8 -26 13 -31z m-222 7 c25 -20 50 -40 55
-44 5 -5 -4 -23 -21 -42 l-30 -34 -56 46 -55 45 26 32 c15 18 29 33 31 33 2 1
25 -16 50 -36z m-134 -13 c-3 -5 1 -23 10 -40 16 -31 16 -31 -5 -20 -12 7 -33
9 -47 5 l-25 -6 27 36 c15 19 32 35 37 35 5 0 6 -4 3 -10z m2158 -106 c-34
-27 -43 -17 -43 45 l0 45 35 -34 35 -34 -27 -22z m-1806 -123 c-44 -53 -82
-98 -83 -99 -4 -6 -29 12 -77 53 l-45 41 85 101 86 102 58 -50 58 -51 -82 -97z
m140 107 l23 -21 -30 -19 c-39 -23 -43 -23 -30 2 6 12 8 30 5 40 -8 26 3 25
32 -2z m-341 -47 c-36 -49 -44 -75 -26 -86 20 -13 9 -20 -29 -20 -42 0 -42 0
-2 53 22 30 23 37 13 64 -10 28 -10 30 11 24 12 -3 29 -1 37 4 32 20 30 8 -4
-39z m609 -128 c-4 -10 -10 -26 -12 -36 -5 -17 -7 -16 -29 4 -29 27 -31 39 -5
32 10 -3 22 0 25 6 12 18 29 13 21 -6z m-455 -69 c-7 -17 -6 -32 1 -45 9 -18
8 -19 -8 -11 -10 6 -29 23 -43 38 -14 15 -19 24 -13 20 7 -4 25 0 40 8 16 8
29 15 30 16 1 0 -2 -12 -7 -26z m448 -69 c7 -14 12 -27 12 -28 0 -2 -16 -3
-35 -4 l-35 -1 17 29 c21 36 27 36 41 4z m1273 -59 c17 -18 9 -24 -36 -28 -25
-2 -45 -1 -45 1 0 3 15 20 33 39 27 28 33 31 35 15 2 -10 8 -22 13 -27z
m-1258 -83 c-14 -18 -28 -33 -32 -33 -3 1 -19 11 -35 24 l-29 24 28 35 28 35
33 -26 32 -26 -25 -33z m77 16 c-14 -25 -12 -63 2 -77 10 -10 6 -11 -20 -6
-22 4 -40 1 -58 -11 -26 -17 -54 -14 -54 4 0 6 6 8 13 5 34 -13 104 78 91 119
-7 22 -6 22 14 3 16 -14 19 -23 12 -37z m-176 -48 c16 -17 15 -18 -6 -14 -15
3 -30 -3 -42 -16 -24 -27 -30 -26 -50 5 -17 25 -17 26 26 64 l43 38 6 -29 c4
-17 14 -38 23 -48z m28 -86 l50 -45 21 28 c11 15 24 31 28 36 6 7 129 -79 129
-91 0 -2 -18 -27 -41 -55 -85 -108 -119 -199 -128 -343 l-7 -110 -41 85 c-54
111 -73 183 -80 306 -5 96 3 234 14 234 3 0 28 -20 55 -45z m303 -49 c11 0 31
4 43 8 22 7 23 6 12 -13 -6 -12 -8 -31 -4 -43 5 -18 3 -20 -12 -13 -24 10 -44
10 -68 0 -17 -7 -18 -5 -13 15 3 13 1 32 -5 43 -9 17 -8 19 8 12 11 -5 28 -8
39 -9z m-301 -508 c30 -41 52 -48 72 -21 20 28 25 11 22 -68 l-3 -74 -41 60
c-55 80 -77 99 -104 90 -13 -4 -21 -3 -18 1 22 47 32 63 38 57 3 -5 18 -25 34
-45z m1842 -10 c5 -7 0 -9 -14 -6 -29 8 -55 -13 -105 -85 l-42 -62 -3 37 c-2
21 -2 56 0 80 3 39 4 41 20 25 26 -27 46 -20 80 28 l31 44 13 -24 c7 -14 16
-30 20 -37z m-1834 -99 c41 -61 43 -68 48 -157 5 -91 5 -92 -18 -92 -35 0 -98
36 -123 71 -23 33 -36 110 -25 153 6 25 65 100 72 93 2 -2 23 -32 46 -68z
m1869 -33 c25 -92 -40 -197 -131 -212 l-35 -6 3 91 c4 89 5 92 50 161 l47 71
28 -33 c15 -18 32 -51 38 -72z m-1767 -228 c12 -37 15 -68 9 -68 -5 1 -18 9
-31 20 -20 16 -21 22 -10 39 15 24 27 27 32 9z m1590 -10 c8 -13 4 -21 -15
-37 -13 -11 -28 -20 -32 -21 -8 0 0 56 10 73 7 11 25 4 37 -15z m-1157 -550
c10 -8 7 -15 -11 -29 -33 -26 -46 -24 -46 7 0 14 -5 34 -11 45 -10 20 -10 20
23 3 18 -9 39 -21 45 -26z m753 23 c-5 -11 -10 -31 -10 -45 0 -30 -7 -32 -38
-10 -29 20 -28 28 11 53 40 26 51 26 37 2z"/>
<path d="M1740 2655 l0 -45 45 0 45 0 0 45 0 45 -45 0 -45 0 0 -45z"/>
<path d="M1460 1612 l-45 -3 3 -44 4 -43 41 3 c37 2 42 6 45 29 7 54 1 61 -48
58z"/>
<path d="M1295 1578 c-11 -6 -30 -17 -43 -25 l-22 -14 26 -34 c26 -34 26 -34
57 -18 18 8 33 16 34 17 3 2 -22 75 -28 80 -2 3 -13 0 -24 -6z"/>
<path d="M1596 1566 c-3 -13 -8 -30 -11 -38 -4 -9 8 -20 31 -31 20 -10 37 -17
38 -15 2 2 12 19 23 39 l21 36 -34 17 c-47 22 -61 20 -68 -8z"/>
<path d="M1743 1468 l-32 -33 23 -29 c25 -30 42 -30 80 -1 19 14 18 16 -8 55
-14 22 -28 40 -29 40 -2 0 -17 -15 -34 -32z"/>
<path d="M1263 1347 c-18 -12 -33 -27 -33 -34 0 -24 75 -91 115 -102 22 -6 93
-11 158 -11 l117 0 0 45 0 45 -130 0 c-139 0 -141 1 -180 57 l-15 21 -32 -21z"/>
<path d="M2345 1350 c-3 -11 -18 -29 -32 -40 -23 -18 -40 -20 -154 -20 l-129
0 0 -45 0 -45 116 0 c155 0 194 11 245 68 l40 46 -33 28 c-40 33 -45 34 -53 8z"/>
<path d="M1188 1098 l-33 -27 36 -36 36 -36 25 38 25 38 -27 26 -28 25 -34
-28z"/>
<path d="M1676 1076 l-29 -24 22 -36 c24 -38 29 -38 79 2 l24 18 -30 32 c-17
18 -32 32 -34 32 -1 -1 -16 -11 -32 -24z"/>
<path d="M1330 1003 c-8 -21 -16 -40 -18 -43 -2 -6 89 -33 93 -28 2 2 6 22 10
44 6 38 4 42 -18 48 -14 3 -31 8 -39 11 -9 4 -19 -7 -28 -32z"/>
<path d="M1533 1023 c-32 -4 -33 -6 -33 -50 l0 -46 45 6 c26 2 48 6 50 8 5 6
-18 89 -25 87 -3 0 -20 -3 -37 -5z"/>
<path d="M1652 757 c-6 -23 -10 -43 -8 -44 2 -2 42 -8 91 -15 64 -8 111 -8
177 0 50 6 93 13 95 16 3 3 1 22 -4 43 -9 36 -11 38 -44 33 -49 -7 -218 -6
-260 2 -37 6 -37 6 -47 -35z"/>
</g>
</svg>
