<?xml version="1.0" standalone="no"?>
<!DOCTYPE svg PUBLIC "-//W3C//DTD SVG 20010904//EN"
 "http://www.w3.org/TR/2001/REC-SVG-20010904/DTD/svg10.dtd">
<svg version="1.0" xmlns="http://www.w3.org/2000/svg"
 width="19.000000pt" height="25.000000pt" viewBox="0 0 199.000000 254.000000"
 preserveAspectRatio="xMidYMid meet">
<metadata>
Created by potrace 1.10, written by Peter Selinger 2001-2011
</metadata>
<g transform="translate(0.000000,254.000000) scale(0.100000,-0.100000)"
fill="#000000" stroke="none">
<path d="M781 2515 c-93 -21 -156 -43 -241 -85 -265 -133 -412 -359 -439 -675
-8 -93 1 -334 14 -375 5 -15 2 -20 -12 -20 -24 0 -68 -45 -82 -83 -6 -16 -11
-71 -11 -123 0 -151 54 -289 145 -373 43 -39 52 -43 103 -45 20 -1 27 -12 51
-86 16 -47 40 -111 54 -142 93 -206 293 -402 484 -474 60 -23 80 -25 168 -22
87 3 109 8 169 36 91 43 176 104 259 188 115 116 187 240 243 420 23 72 29 84
45 79 30 -10 102 29 137 73 38 48 79 133 98 205 16 62 18 224 3 264 -13 35
-58 83 -77 83 -12 0 -13 10 -8 48 38 278 0 547 -101 722 -46 78 -166 201 -247
255 -69 45 -184 95 -276 120 -87 24 -386 30 -479 10z m462 -63 c290 -79 489
-269 567 -542 42 -145 37 -523 -6 -555 -17 -12 -19 -11 -21 18 -27 343 -70
465 -218 612 -68 68 -275 224 -320 241 -7 3 -39 -15 -70 -40 -80 -66 -174
-110 -364 -172 -378 -124 -506 -234 -571 -488 -11 -44 -20 -103 -20 -133 0
-56 -4 -61 -33 -39 -36 28 -50 321 -22 481 55 311 282 546 601 619 38 8 78 18
89 20 11 3 85 3 165 2 109 -2 164 -8 223 -24z m109 -359 c231 -162 311 -273
360 -498 19 -88 16 -439 -6 -594 -12 -93 -14 -127 -5 -137 10 -13 6 -18 -13
-15 -4 0 -12 -25 -19 -57 -31 -152 -106 -324 -191 -439 l-44 -60 -13 29 c-9
20 -17 26 -24 19 -7 -7 -5 -18 6 -35 16 -24 16 -25 -36 -72 -108 -98 -233
-165 -334 -179 -105 -14 -250 46 -385 161 l-78 65 20 21 c22 24 25 34 10 43
-5 3 -15 -5 -22 -19 -6 -14 -14 -26 -17 -26 -3 0 -27 29 -53 63 -64 84 -130
228 -170 367 -18 63 -37 118 -43 122 -5 4 7 5 27 1 25 -4 38 -2 38 6 0 6 -13
11 -29 11 -29 0 -29 1 -42 87 -9 54 -14 171 -14 303 0 209 1 217 28 293 52
148 137 246 271 312 39 19 151 62 248 95 196 66 313 120 373 174 22 19 42 35
44 36 2 0 53 -35 113 -77z m-1176 -790 c20 -20 44 -75 44 -100 0 -12 -13 -3
-41 30 -41 47 -62 57 -75 35 -4 -6 4 -19 19 -30 15 -11 43 -48 62 -82 29 -52
37 -81 50 -177 8 -63 19 -130 25 -149 14 -48 13 -50 -13 -50 -83 0 -197 216
-197 373 0 77 9 113 36 142 27 29 65 32 90 8z m1713 7 c47 -25 64 -153 36
-265 -21 -84 -80 -199 -116 -229 -28 -24 -75 -43 -84 -35 -2 2 6 63 17 134 11
72 21 144 24 160 6 41 75 157 97 163 9 2 17 13 17 23 0 38 -48 16 -80 -36 -12
-20 -24 -34 -27 -31 -8 8 7 60 27 94 21 34 53 42 89 22z"/>
<path d="M453 1470 c-44 -15 -113 -55 -113 -64 0 -1 30 8 68 20 37 13 86 24
110 24 49 0 160 -35 254 -79 34 -17 64 -28 67 -25 9 9 -28 73 -51 88 -32 21
-183 56 -238 56 -25 -1 -69 -9 -97 -20z"/>
<path d="M1337 1474 c-112 -24 -140 -37 -164 -73 -44 -66 -31 -71 62 -25 87
42 191 74 242 74 15 0 60 -11 98 -24 39 -14 71 -23 73 -21 7 7 -90 57 -135 71
-56 17 -88 17 -176 -2z"/>
<path d="M379 1196 c64 -66 195 -113 287 -101 43 5 154 47 154 58 0 2 -26 0
-57 -5 -32 -5 -91 -7 -132 -3 -78 6 -214 45 -246 69 -36 27 -40 17 -6 -18z"/>
<path d="M1581 1204 c-30 -13 -81 -31 -114 -40 -63 -16 -210 -21 -266 -9 -61
13 -24 -14 50 -36 129 -39 278 -7 360 77 18 19 31 34 28 33 -2 0 -28 -11 -58
-25z"/>
<path d="M390 855 c0 -8 6 -15 14 -15 8 0 21 -3 30 -6 10 -4 16 -1 16 9 0 8
-10 17 -22 21 -34 9 -38 8 -38 -9z"/>
<path d="M1561 859 c-15 -6 -21 -13 -15 -19 13 -13 64 0 64 16 0 16 -15 17
-49 3z"/>
<path d="M781 807 c-27 -56 -26 -80 3 -114 18 -20 28 -25 36 -17 7 7 5 16 -10
29 -25 23 -25 50 0 98 24 44 24 47 6 47 -8 0 -24 -19 -35 -43z"/>
<path d="M1160 843 c0 -5 9 -21 20 -38 25 -38 25 -77 0 -100 -15 -13 -17 -22
-10 -29 15 -14 60 36 60 66 0 32 -40 108 -56 108 -8 0 -14 -3 -14 -7z"/>
<path d="M475 830 c-8 -13 41 -43 56 -34 8 5 4 13 -12 25 -27 21 -35 23 -44 9z"/>
<path d="M1480 820 c-14 -10 -21 -22 -17 -26 10 -10 57 17 57 33 0 18 -10 16
-40 -7z"/>
<path d="M550 767 c0 -14 31 -47 43 -47 14 0 7 27 -11 43 -22 21 -32 21 -32 4z"/>
<path d="M1417 762 c-19 -20 -22 -42 -8 -42 11 0 41 39 41 52 0 14 -16 9 -33
-10z"/>
<path d="M855 730 c-8 -13 4 -32 15 -25 5 3 27 -3 49 -15 51 -25 101 -26 151
0 22 11 45 19 51 18 6 -2 14 3 16 9 9 24 -29 26 -73 4 -55 -26 -79 -26 -127
-1 -40 22 -72 26 -82 10z"/>
<path d="M607 694 c-7 -7 13 -54 23 -54 15 0 18 13 8 36 -11 24 -20 29 -31 18z"/>
<path d="M1362 676 c-10 -23 -7 -36 8 -36 10 0 30 47 23 54 -11 11 -20 6 -31
-18z"/>
<path d="M636 583 c8 -34 10 -37 22 -29 14 8 2 56 -14 56 -11 0 -13 -7 -8 -27z"/>
<path d="M1340 596 c0 -8 -3 -21 -6 -30 -4 -10 -1 -16 9 -16 9 0 16 12 19 30
3 20 0 30 -9 30 -7 0 -13 -6 -13 -14z"/>
<path d="M638 490 c-3 -17 -1 -33 4 -36 13 -8 19 0 21 31 3 39 -20 43 -25 5z"/>
<path d="M1330 508 c0 -25 12 -58 21 -58 5 0 9 16 9 35 0 24 -5 35 -15 35 -8
0 -15 -6 -15 -12z"/>
<path d="M838 483 c-51 -28 -60 -45 -11 -20 45 23 89 29 130 18 l38 -10 -24
19 c-32 27 -77 25 -133 -7z"/>
<path d="M1020 492 l-25 -20 47 10 c40 9 54 8 95 -8 26 -10 52 -21 58 -22 5
-2 -8 8 -29 23 -52 37 -113 44 -146 17z"/>
<path d="M807 440 c-73 -9 -87 -15 -71 -29 5 -5 34 -5 69 1 51 8 369 6 429 -4
30 -5 30 19 -1 26 -49 11 -355 15 -426 6z"/>
<path d="M618 405 c-6 -14 -8 -28 -4 -33 9 -8 36 26 36 45 0 22 -20 14 -32
-12z"/>
<path d="M1350 421 c0 -5 5 -22 10 -37 8 -20 14 -24 22 -16 9 9 9 18 0 37 -11
24 -32 35 -32 16z"/>
<path d="M801 384 c19 -23 80 -34 194 -34 114 0 175 11 194 34 9 11 2 11 -41
0 -67 -18 -239 -18 -306 0 -43 11 -50 11 -41 0z"/>
</g>
</svg>
