<?xml version="1.0" standalone="no"?>
<!DOCTYPE svg PUBLIC "-//W3C//DTD SVG 20010904//EN"
 "http://www.w3.org/TR/2001/REC-SVG-20010904/DTD/svg10.dtd">
<svg version="1.0" xmlns="http://www.w3.org/2000/svg"
 width="225.000000pt" height="225.000000pt" viewBox="0 0 225.000000 225.000000"
 preserveAspectRatio="xMidYMid meet">
<metadata>
Created by potrace 1.10, written by Peter Selinger 2001-2011
</metadata>
<g transform="translate(0.000000,225.000000) scale(0.100000,-0.100000)"
fill="#000000" stroke="none">
<path d="M1550 1807 c0 -383 -1 -408 -17 -406 -37 3 -45 -3 -103 -82 l-60 -81
0 -373 c0 -205 3 -380 6 -389 4 -12 20 -16 55 -16 l49 0 0 -111 0 -112 -38 6
c-64 8 -72 -2 -72 -96 0 -45 4 -88 8 -95 7 -9 55 -12 208 -10 l199 3 3 89 c2
49 -2 94 -7 99 -5 5 -28 10 -51 11 l-42 1 0 105 0 105 49 5 48 5 3 389 2 388
-52 72 c-68 93 -63 89 -93 90 l-26 1 1 401 0 402 -35 4 -35 4 0 -409z m60
-412 c13 -14 29 -25 37 -25 7 0 13 -5 13 -10 0 -7 -7 -7 -20 0 -11 6 -25 8
-30 5 -6 -4 -24 -4 -40 0 -29 6 -30 7 -12 30 21 30 23 30 52 0z m67 -113 l42
-58 3 -192 3 -192 -142 0 -143 0 0 191 0 191 46 59 c45 59 45 59 97 59 52 -1
52 -1 94 -58z m-250 -499 l-27 -28 0 55 0 55 27 -28 28 -27 -28 -27z m333 25
l0 -53 -26 26 -26 26 24 26 c12 14 24 25 26 26 1 1 2 -23 2 -51z m-39 -157 l0
-122 -140 -2 -141 -2 0 125 0 125 141 -1 140 -2 0 -121z m-281 -159 c-20 -7
-40 7 -40 29 l0 22 26 -24 c14 -13 20 -25 14 -27z m316 13 c-3 -8 -15 -15 -27
-15 l-22 0 24 26 c23 24 37 19 25 -11z m-202 -13 c2 -4 -6 -17 -19 -28 l-24
-21 -20 21 c-12 12 -21 25 -21 29 0 10 78 9 84 -1z m123 -21 c-12 -15 -23 -28
-25 -30 -4 -7 -31 33 -32 47 0 9 13 12 40 10 l40 -2 -23 -25z m-57 -122 l0
-110 -36 3 -36 3 -1 108 -2 107 38 0 37 0 0 -111z m-78 -114 c24 -21 26 -25
11 -26 -10 -1 -33 -2 -50 -4 -38 -3 -38 -2 -17 30 20 31 19 31 56 0z m130 8
c27 -25 22 -33 -22 -33 l-41 0 18 25 c22 29 22 29 45 8z m76 -32 c8 -5 12 -17
10 -26 -3 -18 -4 -18 -20 -1 -29 28 -21 47 10 27z m-315 -23 c-24 -23 -40 -20
-30 7 4 8 17 15 29 15 l22 0 -21 -22z m292 -45 l-3 -38 -141 -3 -141 -3 0 41
0 40 143 0 144 0 -2 -37z m-285 -77 c-14 -14 -40 13 -40 41 l0 24 24 -28 c15
-16 21 -32 16 -37z m317 7 c-3 -3 -13 -3 -21 -1 -15 3 -15 6 1 28 l18 25 3
-23 c2 -13 1 -26 -1 -29z"/>
<path d="M572 1428 c-17 -17 -17 -239 0 -256 7 -7 24 -12 38 -12 24 0 26 -3
25 -40 0 -34 -4 -41 -29 -52 -48 -20 -98 -69 -122 -123 -24 -50 -24 -53 -24
-430 0 -514 -28 -475 351 -475 235 0 254 1 284 20 64 39 65 49 65 447 0 401
-4 428 -64 499 -19 22 -53 48 -75 59 -38 16 -41 21 -41 56 0 35 2 38 33 41
l32 3 0 135 0 135 -230 3 c-171 2 -234 -1 -243 -10z m58 -37 c-13 -25 -27 -34
-34 -22 -10 16 5 41 25 41 16 0 18 -3 9 -19z m390 -1 c8 -15 8 -20 -3 -20 -14
0 -37 19 -37 32 0 16 30 7 40 -12z m-30 -90 l0 -70 -180 0 -180 0 0 70 0 70
180 0 180 0 0 -70z m-356 -85 c11 -8 35 -15 54 -15 l34 0 -29 -33 c-24 -28
-29 -31 -35 -16 -4 10 -17 23 -30 30 -27 14 -39 30 -32 41 7 11 16 10 38 -7z
m390 6 c4 -5 -12 -23 -34 -41 -39 -31 -40 -31 -64 -13 -33 24 -32 33 2 33 15
0 38 7 52 14 31 17 37 18 44 7z m-105 -119 c-3 -69 1 -78 39 -85 57 -12 132
-100 132 -157 0 -20 -5 -20 -284 -20 l-284 0 7 33 c15 66 64 120 127 142 l39
13 3 66 3 66 110 0 110 0 -2 -58z m209 -469 l-3 -228 -2 182 c-3 179 -4 183
-27 200 l-24 18 26 28 c14 15 27 27 29 27 2 0 2 -102 1 -227z m-604 198 c16
-18 16 -20 -8 -47 l-25 -29 -1 48 c0 51 8 57 34 28z m566 -303 l0 -248 -282 0
-283 0 2 247 c2 137 3 248 3 248 0 0 126 0 280 0 l280 0 0 -247z m40 -288 l0
-60 -29 32 -30 33 27 28 c14 15 27 27 29 27 2 0 3 -27 3 -60z m-608 -15 l-27
-24 -6 22 c-3 12 -3 32 -1 44 l4 22 28 -21 28 -20 -26 -23z m568 -44 c0 -16
-9 -39 -19 -52 l-19 -24 -240 0 c-269 0 -276 2 -284 71 l-4 34 283 0 283 0 0
-29z"/>
<path d="M670 595 l0 -35 140 0 140 0 0 35 0 35 -140 0 -140 0 0 -35z"/>
<path d="M600 455 l0 -35 210 0 210 0 0 35 0 35 -210 0 -210 0 0 -35z"/>
</g>
</svg>
