<?xml version="1.0" standalone="no"?>
<!DOCTYPE svg PUBLIC "-//W3C//DTD SVG 20010904//EN"
 "http://www.w3.org/TR/2001/REC-SVG-20010904/DTD/svg10.dtd">
<svg version="1.0" xmlns="http://www.w3.org/2000/svg"
 width="300.000000pt" height="300.000000pt" viewBox="0 0 300.000000 300.000000"
 preserveAspectRatio="xMidYMid meet">
<metadata>
Created by potrace 1.10, written by Peter Selinger 2001-2011
</metadata>
<g transform="translate(0.000000,300.000000) scale(0.100000,-0.100000)"
fill="#000000" stroke="none">
<path d="M1975 2714 c-310 -68 -535 -348 -535 -664 0 -373 305 -679 678 -680
204 0 418 104 538 263 209 276 185 654 -57 896 -125 125 -275 190 -454 197
-67 2 -123 -1 -170 -12z m294 -35 c80 -26 147 -53 173 -71 14 -10 31 -18 37
-18 21 0 168 -156 191 -205 14 -27 28 -52 31 -55 3 -3 16 -32 27 -65 60 -174
49 -336 -35 -505 -73 -147 -203 -265 -348 -315 -112 -39 -280 -47 -389 -19
-220 56 -399 232 -460 451 -22 80 -22 256 -1 338 19 72 75 189 111 230 14 17
36 41 48 55 24 30 119 101 156 117 28 13 110 45 155 61 41 14 261 15 304 1z"/>
<path d="M1965 2655 c-232 -70 -386 -223 -451 -450 -27 -94 -23 -239 10 -342
33 -101 39 -114 98 -188 132 -166 291 -245 498 -245 185 0 315 55 446 187 57
58 96 122 158 262 6 13 11 87 11 165 0 125 -3 148 -25 206 -75 200 -208 331
-395 390 -22 7 -50 16 -63 21 -33 13 -240 9 -287 -6z m290 -30 c267 -68 455
-306 455 -575 0 -267 -194 -514 -451 -575 -83 -19 -205 -19 -282 1 -207 54
-378 223 -432 429 -19 76 -19 214 0 289 53 204 232 382 431 430 79 19 206 19
279 1z"/>
<path d="M1968 2459 c-16 -9 -18 -26 -18 -124 l0 -115 -113 0 c-75 0 -117 -4
-125 -12 -17 -17 -17 -299 0 -316 8 -8 50 -12 125 -12 l113 0 0 -113 c0 -75 4
-117 12 -125 15 -15 281 -17 309 -2 17 10 19 22 19 125 l0 115 115 0 c103 0
115 2 125 19 13 26 13 276 0 302 -10 17 -22 19 -125 19 l-115 0 0 109 c0 86
-3 113 -16 125 -13 13 -41 16 -152 16 -75 0 -145 -5 -154 -11z m286 -52 c3
-12 6 -58 6 -101 0 -110 7 -116 124 -116 50 0 97 -4 104 -8 9 -7 12 -41 10
-138 l-3 -129 -100 -3 c-131 -4 -132 -5 -137 -132 -1 -54 -6 -102 -10 -106 -9
-9 -242 -9 -257 0 -7 5 -11 43 -11 103 0 129 -4 133 -122 133 -131 0 -128 -3
-128 140 0 143 -3 140 128 140 117 0 120 4 124 135 4 118 -6 112 157 107 102
-3 109 -5 115 -25z"/>
<path d="M2022 2387 c-19 -21 -22 -34 -22 -120 l0 -97 -98 0 c-127 0 -139 -10
-143 -118 -2 -64 1 -75 21 -97 22 -23 30 -25 122 -25 112 0 101 13 98 -116 -1
-63 2 -75 24 -100 22 -27 29 -29 95 -29 100 0 109 11 113 140 l3 100 102 5
c134 7 143 14 143 120 0 106 -9 113 -143 120 l-102 5 -3 100 c-4 129 -9 135
-112 135 -67 0 -79 -3 -98 -23z m178 -116 c0 -86 3 -113 16 -125 12 -13 39
-16 125 -16 l109 0 0 -82 0 -83 -106 3 c-143 4 -144 4 -144 -140 l0 -108 -82
0 -83 0 3 108 c5 143 3 145 -142 140 l-106 -3 0 83 0 82 108 0 c144 0 145 1
140 144 l-3 106 83 0 82 0 0 -109z"/>
<path d="M853 2635 c-151 -41 -273 -143 -341 -285 -61 -129 -76 -201 -76 -365
0 -208 27 -297 166 -538 101 -177 124 -238 144 -389 38 -300 103 -491 249
-743 56 -97 73 -119 108 -136 75 -39 166 -9 201 65 13 27 16 67 16 188 0 172
9 242 46 361 29 90 55 127 91 127 39 0 67 -39 103 -145 32 -97 33 -106 39
-307 7 -226 8 -233 75 -282 38 -29 124 -29 163 0 38 28 171 261 223 391 53
134 94 293 114 451 9 68 19 134 22 146 10 41 -48 75 -74 44 -11 -14 -25 -88
-42 -221 -25 -200 -96 -405 -210 -607 -39 -68 -76 -128 -83 -132 -22 -14 -57
-8 -77 12 -18 18 -20 33 -20 180 0 180 -13 261 -62 399 -36 97 -66 134 -126
152 -87 26 -162 -21 -201 -126 -52 -137 -63 -202 -68 -400 -6 -207 -11 -225
-63 -225 -35 0 -45 12 -124 155 -118 214 -179 400 -211 651 -24 187 -46 247
-176 470 -112 192 -145 314 -136 498 16 330 194 536 463 536 41 0 163 -16 271
-35 108 -19 205 -35 215 -35 10 0 24 11 30 25 21 47 -5 58 -237 99 -226 39
-326 44 -412 21z m-43 -63 c0 -4 -17 -15 -37 -24 -77 -33 -169 -126 -204 -205
-8 -18 -17 -33 -21 -33 -5 0 -8 -9 -8 -19 0 -11 -4 -22 -9 -25 -5 -3 -12 -22
-15 -41 -4 -20 -11 -33 -16 -30 -9 6 -7 20 10 60 5 11 14 35 22 53 7 17 16 32
20 32 5 0 8 7 8 16 0 20 49 91 92 130 31 30 134 94 151 94 4 0 7 -3 7 -8z
m-313 -429 c-7 -52 -17 -52 -17 1 0 31 4 45 11 41 6 -4 8 -23 6 -42z m-18
-190 c-1 -44 -3 -51 -8 -28 -6 29 -3 85 5 85 2 0 3 -26 3 -57z m52 -254 c8
-15 8 -24 0 -32 -8 -8 -11 -4 -11 14 0 14 -4 29 -9 35 -6 5 -11 21 -13 36 -2
15 -7 30 -11 34 -4 4 -7 26 -6 48 0 36 3 32 20 -37 10 -43 24 -87 30 -98z m44
-94 c16 -27 41 -72 55 -100 15 -27 36 -66 48 -86 11 -20 24 -45 29 -55 6 -11
15 -29 21 -41 14 -26 15 -43 4 -43 -4 0 -14 20 -21 45 -7 25 -16 43 -19 40 -3
-3 -21 25 -39 62 -19 37 -37 72 -42 77 -20 26 -71 129 -71 143 0 20 1 19 35
-42z m203 -436 c-3 -33 -3 -33 -14 14 -10 43 -10 47 3 34 9 -8 13 -28 11 -48z
m1348 -206 c-7 -68 -10 -83 -29 -143 -20 -60 -21 -31 -2 55 9 39 19 87 22 108
9 58 15 44 9 -20z m-656 -4 c0 -5 -4 -8 -9 -4 -5 3 -12 1 -16 -5 -4 -6 -10 -8
-15 -5 -10 6 -68 -50 -81 -79 -8 -17 -8 -15 -4 9 8 38 50 83 84 88 14 2 29 5
34 6 4 0 7 -4 7 -10z m79 -34 c17 -20 31 -45 31 -55 0 -11 3 -20 8 -20 6 0 35
-104 50 -180 7 -38 14 -216 8 -209 -3 3 -6 43 -7 90 -1 46 -5 89 -9 94 -4 6
-10 26 -13 45 -22 141 -75 248 -124 250 -21 0 -15 20 6 20 10 0 33 -16 50 -35z
m-704 -132 c7 -29 11 -53 10 -53 -8 0 -34 66 -36 90 -2 38 2 59 8 35 2 -11 11
-44 18 -72z m495 45 c-1 -14 -39 -121 -41 -113 -3 22 3 61 12 70 5 5 9 17 9
27 0 10 5 18 10 18 6 0 10 -1 10 -2z m740 -93 c0 -14 -4 -33 -9 -43 -5 -9 -15
-36 -22 -59 -7 -24 -16 -43 -22 -43 -5 0 -6 8 -2 18 4 9 11 31 15 47 5 17 13
44 18 62 6 17 8 34 4 37 -3 3 0 6 6 6 7 0 12 -11 12 -25z m-1087 -320 c15 -27
38 -68 50 -90 12 -21 41 -59 65 -84 46 -49 48 -52 30 -49 -17 4 -98 88 -98
102 0 3 -15 29 -34 58 -18 29 -34 56 -35 60 -1 5 -12 32 -25 60 -39 88 -45
106 -38 112 3 4 18 -22 32 -56 14 -35 38 -85 53 -113z m1024 145 c-1 -11 -5
-20 -9 -20 -4 0 -8 -9 -8 -19 0 -18 -17 -38 -25 -30 -2 2 5 21 15 41 10 20 15
39 12 42 -3 4 0 6 6 6 6 0 10 -9 9 -20z m-740 -167 c-2 -32 -3 -6 -3 57 0 63
1 89 3 58 2 -32 2 -84 0 -115z m672 28 c-16 -33 -29 -65 -29 -70 0 -6 -3 -11
-7 -11 -5 0 -16 -18 -27 -40 -22 -46 -72 -100 -93 -100 -8 0 1 14 21 33 35 32
51 58 113 180 19 37 38 67 43 67 5 0 -4 -27 -21 -59z m-279 -157 c29 -38 55
-64 63 -64 5 0 5 4 2 10 -3 6 -1 10 4 10 6 0 11 -5 11 -11 0 -5 5 -7 10 -4 6
3 10 2 10 -4 0 -17 -70 -6 -91 15 -26 26 -32 53 -34 149 l-2 80 6 -81 c3 -48
12 -89 21 -100z m-400 -19 c-14 -27 -47 -47 -84 -52 -24 -2 -26 -1 -16 11 6 8
17 13 23 10 14 -5 66 41 68 59 1 7 2 17 4 22 1 6 3 17 5 25 2 8 5 0 7 -19 3
-19 -1 -44 -7 -56z"/>
<path d="M972 2395 c-106 -33 -183 -113 -216 -225 -29 -97 -18 -150 29 -150
31 0 45 19 45 61 0 89 54 175 135 214 45 22 64 26 125 23 54 -2 73 1 81 12 15
24 6 54 -21 67 -32 16 -123 15 -178 -2z m17 -45 c-59 -17 -130 -81 -166 -147
-10 -18 -21 -33 -24 -33 -16 0 19 65 58 108 47 51 95 80 133 80 l25 0 -26 -8z"/>
</g>
</svg>
