<?xml version="1.0" standalone="no"?>
<!DOCTYPE svg PUBLIC "-//W3C//DTD SVG 20010904//EN"
 "http://www.w3.org/TR/2001/REC-SVG-20010904/DTD/svg10.dtd">
<svg version="1.0" xmlns="http://www.w3.org/2000/svg"
 width="225.000000pt" height="128.000000pt" viewBox="0 0 225.000000 128.000000"
 preserveAspectRatio="xMidYMid meet">
<metadata>
Created by potrace 1.10, written by Peter Selinger 2001-2011
</metadata>
<g transform="translate(0.000000,128.000000) scale(0.100000,-0.100000)"
fill="#000000" stroke="none">
<path d="M365 1198 c-26 -14 -58 -53 -62 -76 -13 -65 12 -202 43 -231 17 -17
17 -16 -9 41 -9 20 -20 68 -23 105 -8 82 9 123 57 149 29 14 41 14 187 -11
426 -71 716 -73 1099 -5 166 30 198 28 238 -14 18 -20 36 -51 39 -71 8 -42 -9
-140 -31 -173 -17 -27 -12 -40 6 -18 17 20 41 113 41 159 0 59 -32 111 -83
136 l-44 22 -144 -25 c-426 -73 -692 -73 -1111 -1 -161 28 -175 29 -203 13z"/>
<path d="M366 1143 c-26 -40 -30 -64 -27 -148 1 -33 4 -45 10 -36 6 9 18 11
35 7 18 -4 26 -2 26 7 0 42 86 62 142 33 26 -14 29 -13 56 14 37 37 99 46 215
32 116 -14 223 -48 270 -84 20 -16 37 -24 37 -19 0 16 90 58 172 80 159 42
321 36 348 -13 11 -22 13 -22 55 -8 57 18 116 6 130 -26 8 -18 15 -22 34 -17
15 4 28 1 33 -7 6 -8 8 19 5 74 -5 94 -24 141 -46 114 -13 -16 1 -32 19 -21 6
3 10 -1 10 -9 0 -9 -4 -16 -10 -16 -5 0 -10 -7 -10 -15 0 -9 6 -12 15 -9 9 4
15 0 15 -10 0 -9 -7 -16 -15 -16 -8 0 -15 -4 -15 -10 0 -5 8 -6 17 -3 13 5 15
2 10 -11 -4 -10 -7 -22 -7 -27 0 -14 -30 -11 -45 5 -8 7 -11 17 -7 21 4 5 -1
5 -10 2 -10 -4 -18 -2 -18 2 0 5 -10 7 -22 5 -20 -4 -19 -3 3 8 22 11 24 15
13 26 -12 10 -14 10 -14 -2 0 -17 -22 -26 -47 -20 -11 3 -25 -2 -32 -10 -15
-17 -46 -22 -36 -6 4 6 3 9 -2 8 -4 -1 -19 4 -32 11 -55 31 -196 52 -203 31
-2 -6 -27 -11 -56 -11 -28 -1 -52 -5 -52 -9 0 -14 -44 -20 -52 -7 -6 9 -8 9
-8 0 0 -7 -6 -13 -14 -13 -8 0 -17 6 -19 13 -3 7 -6 5 -6 -5 -1 -17 -12 -22
-40 -19 -7 2 -10 -2 -7 -7 7 -12 -33 -31 -64 -28 -39 3 -130 39 -130 52 0 6
-12 12 -27 12 -61 2 -158 15 -163 22 -3 4 -27 10 -54 12 -33 4 -44 3 -35 -4
10 -7 0 -8 -30 -4 -30 3 -40 1 -30 -5 12 -7 11 -9 -3 -9 -9 0 -30 -11 -46 -25
-30 -25 -48 -33 -38 -16 3 5 -5 11 -19 13 -13 3 -22 1 -19 -4 7 -10 -42 -6
-52 5 -4 4 -14 7 -23 7 -14 0 -14 -2 -1 -10 12 -8 11 -10 -5 -10 -12 0 -27 -6
-34 -12 -12 -11 -13 -9 -7 7 5 16 1 14 -18 -7 -14 -16 -27 -28 -29 -28 -6 0
-1 39 6 46 3 3 1 14 -6 24 -13 22 5 72 25 68 8 -2 12 5 10 16 -2 12 1 15 8 11
7 -4 15 -3 19 4 5 8 49 4 154 -14 81 -13 196 -26 255 -29 117 -5 104 -2 -63
15 -60 6 -159 20 -220 30 -149 26 -150 26 -179 -18z"/>
<path d="M1723 1167 c-35 -5 -63 -14 -63 -19 0 -4 13 -6 29 -3 17 3 33 0 37
-6 5 -8 -1 -10 -19 -7 -15 3 -24 1 -21 -3 3 -5 12 -9 20 -9 8 0 14 -8 15 -17
0 -10 5 -4 10 14 7 24 17 33 39 38 16 4 32 11 35 16 7 10 4 10 -82 -4z"/>
<path d="M1820 1172 c0 -5 -10 -14 -22 -21 -17 -9 -18 -10 -3 -5 11 4 27 7 35
8 21 3 25 20 6 24 -9 2 -16 -1 -16 -6z"/>
<path d="M1465 1129 l-140 -18 110 6 c61 3 124 6 142 7 17 1 29 4 27 8 -2 4 6
9 18 11 52 10 -22 3 -157 -14z"/>
<path d="M376 915 c5 -11 8 -39 8 -62 0 -24 4 -43 8 -43 15 0 8 86 -8 106 -15
19 -16 19 -8 -1z"/>
<path d="M1862 913 c-5 -10 -12 -39 -14 -65 -4 -35 -12 -54 -32 -73 -15 -14
-29 -25 -31 -25 -2 0 -1 24 2 53 4 36 13 60 31 79 14 15 23 30 20 33 -3 3 -19
-10 -37 -30 -25 -29 -31 -44 -31 -83 0 -48 -12 -72 -37 -72 -20 0 -8 95 17
130 27 38 19 39 -15 3 -19 -22 -25 -38 -25 -76 0 -38 -5 -53 -26 -74 -31 -31
-46 -21 -46 31 0 43 38 126 58 126 9 0 12 5 9 10 -11 18 -24 10 -49 -28 -32
-51 -44 -143 -22 -162 14 -11 21 -11 41 0 14 7 25 17 25 22 0 4 14 8 30 8 17
0 30 5 30 10 0 6 8 10 19 10 17 0 71 42 71 56 0 4 8 13 18 20 10 8 12 13 5 14
-16 0 -17 44 -2 72 6 11 8 22 6 25 -3 2 -10 -4 -15 -14z"/>
<path d="M432 883 c18 -20 28 -44 32 -81 7 -51 6 -53 -14 -42 -11 6 -20 15
-20 19 0 5 -8 12 -17 15 -14 6 -14 3 3 -16 47 -56 64 -52 64 16 0 44 -5 60
-26 85 -14 17 -31 31 -37 31 -6 0 1 -12 15 -27z"/>
<path d="M1561 888 c-91 -99 -102 -153 -43 -220 20 -24 55 -23 78 3 l19 21
-33 -19 -33 -18 -25 28 c-40 46 -34 95 21 154 l45 48 20 -24 c24 -28 28 -6 4
27 -19 28 -27 28 -53 0z"/>
<path d="M642 888 c-18 -18 -15 -33 4 -17 15 12 22 8 60 -35 53 -58 60 -107
20 -153 l-24 -28 -34 19 -33 19 19 -22 c28 -31 65 -24 94 19 33 48 24 100 -27
160 -41 49 -60 57 -79 38z"/>
<path d="M968 877 c-28 -22 -48 -64 -48 -95 1 -10 6 -4 14 13 24 51 41 67 84
75 23 4 39 4 37 0 -3 -4 4 -15 15 -25 35 -31 60 -158 39 -196 -11 -21 -16 -21
-93 -16 -60 5 -84 11 -93 24 -15 19 -17 5 -4 -16 7 -10 36 -16 97 -19 74 -4
88 -2 96 12 9 16 11 16 29 0 14 -12 34 -17 77 -15 92 3 117 12 119 47 2 27 1
28 -5 4 -9 -27 -46 -38 -135 -39 -59 -1 -68 16 -57 105 8 69 21 96 52 118 50
35 106 4 128 -71 7 -23 17 -40 21 -37 4 2 9 -19 11 -48 l3 -53 42 -3 c23 -2
52 2 63 8 31 16 19 22 -16 8 -17 -6 -43 -8 -57 -4 -23 5 -27 11 -27 45 0 105
72 195 118 149 9 -9 12 -9 12 3 0 22 -21 39 -46 39 -28 0 -71 -54 -80 -99 -8
-40 -26 -35 -35 9 -10 48 -41 84 -81 94 -30 8 -40 6 -63 -12 -15 -12 -25 -22
-21 -22 4 0 0 -7 -8 -16 -9 -8 -16 -24 -16 -35 0 -32 -17 -21 -39 24 -32 67
-85 84 -133 44z"/>
<path d="M480 889 c0 -3 11 -19 23 -37 16 -21 24 -47 25 -78 2 -42 0 -46 -18
-41 -11 3 -20 1 -20 -4 0 -5 12 -9 27 -9 15 0 37 -9 49 -21 15 -14 29 -19 43
-14 17 5 21 14 21 53 0 67 -54 163 -81 146 -15 -9 -10 -24 5 -18 9 3 21 -10
34 -38 29 -61 35 -100 20 -121 -12 -16 -15 -16 -40 8 -23 21 -28 34 -28 74 0
40 -5 52 -30 76 -16 16 -30 27 -30 24z"/>
<path d="M776 875 c-9 -9 -16 -22 -16 -28 0 -8 4 -7 12 1 21 21 56 14 76 -15
27 -38 44 -101 40 -143 -3 -33 -5 -35 -38 -35 -19 1 -46 4 -60 8 -24 8 -24 8
-5 -8 13 -11 35 -15 65 -13 l45 3 3 53 c2 30 7 50 13 47 5 -4 9 -2 9 3 0 6 -6
12 -14 15 -8 3 -17 19 -21 36 -13 60 -79 106 -109 76z"/>
<path d="M380 694 c0 -4 12 -17 26 -31 l26 -23 -22 -45 c-22 -46 -28 -47 -62
-17 -10 9 -18 10 -18 4 0 -16 52 -54 61 -45 5 5 20 30 33 57 l25 49 -31 29
c-31 29 -38 33 -38 22z"/>
<path d="M1843 681 c-3 -11 -14 -22 -25 -24 -11 -3 -18 -9 -16 -14 2 -4 15
-32 28 -60 13 -29 27 -53 31 -53 15 0 64 48 56 56 -4 4 -16 -2 -27 -14 -12
-12 -22 -22 -24 -22 -3 0 -14 20 -26 45 l-22 45 26 23 c28 26 32 37 15 37 -6
0 -13 -9 -16 -19z"/>
<path d="M293 618 c-31 -15 -44 -58 -50 -170 -6 -91 -4 -99 20 -141 15 -24 25
-46 24 -48 -1 -2 0 -3 1 -2 2 1 31 -18 63 -42 162 -119 401 -161 859 -152 340
7 505 38 645 122 112 68 158 135 156 229 -2 134 -35 216 -85 216 -17 0 -14 -4
11 -16 40 -20 52 -53 60 -164 5 -74 3 -91 -15 -126 -64 -125 -270 -215 -556
-243 -139 -14 -435 -14 -591 0 -299 25 -499 111 -567 244 -18 34 -20 51 -15
125 8 112 21 147 61 165 17 7 24 13 16 14 -8 0 -25 -5 -37 -11z"/>
<path d="M596 592 c12 -25 11 -34 -7 -83 -11 -30 -27 -61 -35 -69 -13 -13 -16
-13 -24 0 -8 13 -10 13 -10 -2 0 -9 5 -20 11 -23 13 -9 59 33 59 55 0 9 8 32
18 51 16 31 16 40 5 67 -7 18 -17 32 -22 32 -5 0 -3 -13 5 -28z"/>
<path d="M1637 588 c-11 -27 -11 -36 5 -67 10 -19 18 -42 18 -51 0 -9 12 -27
26 -41 25 -24 26 -24 40 -5 18 25 18 47 0 24 -19 -25 -40 -5 -64 58 -17 45
-17 56 -6 83 7 17 9 31 4 31 -6 0 -16 -14 -23 -32z"/>
<path d="M506 540 c-10 -34 -24 -64 -32 -67 -8 -3 -26 5 -39 17 -14 13 -27 21
-30 18 -3 -2 8 -17 25 -33 27 -26 30 -27 53 -12 16 10 27 32 36 72 17 77 8 80
-13 5z"/>
<path d="M1721 585 c0 -5 5 -31 12 -56 13 -49 32 -79 51 -79 15 0 69 50 62 58
-4 3 -17 -5 -31 -18 -29 -27 -52 -21 -60 17 -7 32 -34 93 -34 78z"/>
<path d="M704 530 c5 -63 -13 -110 -52 -140 -34 -27 -39 -26 -50 18 -8 28 -10
31 -11 12 -1 -41 20 -69 45 -60 36 14 84 84 84 124 0 30 5 38 32 52 32 16 32
16 60 -15 34 -38 35 -61 4 -126 -27 -59 -48 -79 -76 -72 -24 6 -26 -5 -5 -23
13 -11 20 -9 41 11 36 34 74 112 74 153 0 30 4 35 30 41 17 4 44 4 60 0 28 -6
30 -10 30 -49 0 -44 -36 -127 -57 -134 -7 -2 -22 11 -33 30 -12 21 -20 27 -20
16 0 -9 11 -30 25 -45 l25 -28 25 28 c13 15 30 45 36 67 15 50 25 51 34 3 10
-57 22 -73 55 -73 34 0 46 18 56 80 l7 43 14 -52 c17 -69 19 -71 54 -71 25 0
33 6 45 35 7 19 14 44 14 55 0 33 16 23 29 -20 6 -22 23 -52 36 -67 l25 -28
25 28 c14 15 25 33 25 40 -1 12 -26 -17 -33 -36 -2 -6 -11 -8 -21 -4 -24 9
-56 84 -56 134 0 38 2 42 30 48 17 4 44 4 60 0 27 -6 30 -11 30 -43 0 -42 47
-132 82 -156 25 -18 43 -8 51 27 6 20 5 20 -7 4 -27 -36 -60 -15 -95 63 -28
60 -26 84 7 121 28 31 28 31 60 15 28 -14 32 -22 32 -55 0 -33 7 -47 45 -85
24 -25 49 -46 55 -46 13 0 30 44 29 73 -1 16 -3 14 -8 -8 -9 -42 -35 -43 -72
-4 -29 32 -31 37 -27 101 2 37 0 68 -4 68 -4 0 -8 -8 -8 -18 0 -28 -10 -33
-34 -17 -31 22 -51 18 -79 -14 -17 -20 -28 -26 -38 -20 -19 12 -86 11 -110 -1
-10 -6 -19 -7 -19 -3 0 4 -61 8 -135 8 -74 0 -135 -4 -135 -8 0 -4 -9 -3 -19
3 -24 12 -91 13 -110 1 -10 -6 -21 0 -38 20 -28 33 -48 36 -81 13 -18 -12 -23
-13 -26 -2 -13 40 -16 38 -12 -12z m409 -73 c-8 -70 -18 -100 -36 -111 -25
-16 -50 3 -62 47 -5 19 -12 38 -16 41 -3 3 -3 20 -1 38 l4 33 58 -3 58 -4 -5
-41z m137 23 c0 -17 5 -30 13 -30 8 0 7 -3 -3 -10 -8 -5 -19 -25 -25 -46 -12
-44 -37 -64 -62 -48 -19 12 -30 46 -35 107 l-3 42 50 6 c28 3 53 7 58 7 4 1 7
-11 7 -28z"/>
<path d="M280 553 c0 -6 -5 -46 -11 -89 -7 -52 -7 -84 -1 -98 6 -12 13 -28 16
-36 3 -8 4 -1 1 15 -7 37 -6 136 2 148 3 4 13 1 23 -8 11 -10 20 -12 24 -6 4
5 1 13 -5 16 -6 4 -19 21 -30 39 -10 17 -19 26 -19 19z"/>
<path d="M1940 527 c-14 -20 -32 -39 -42 -42 -9 -3 -23 -21 -32 -40 -10 -21
-27 -37 -41 -41 -14 -3 -28 -17 -34 -34 -5 -16 -23 -36 -40 -45 -29 -15 -37
-33 -32 -74 2 -7 -2 -10 -7 -7 -5 3 -30 -5 -54 -18 -71 -38 -173 -59 -283 -60
-131 -1 -172 4 -217 26 -21 10 -40 18 -43 18 -12 0 1 -25 13 -26 7 -1 17 -2
23 -3 5 0 8 -5 4 -10 -3 -6 4 -8 15 -6 11 2 20 1 20 -3 0 -8 15 -10 145 -20
55 -4 111 -4 125 0 14 3 47 9 74 13 37 5 46 9 35 17 -10 7 -7 8 13 5 15 -2 29
0 31 6 2 6 11 6 25 -2 14 -8 22 -8 22 -1 0 5 -8 10 -17 11 -15 0 -15 2 2 9 28
12 33 12 38 -2 2 -7 3 -6 2 4 -2 9 6 18 16 21 11 3 19 0 19 -7 0 -21 47 -40
71 -30 20 9 20 11 5 26 -12 12 -13 18 -3 21 6 2 0 4 -14 4 -26 0 -26 0 -7 -19
25 -25 15 -35 -17 -18 -33 18 -32 31 9 93 46 69 56 80 89 101 15 10 27 26 27
36 0 10 17 30 37 46 20 15 33 22 28 14 -6 -9 -4 -12 6 -8 12 5 15 -4 15 -42 0
-27 -4 -46 -9 -43 -5 3 -4 -4 3 -16 9 -19 7 -27 -19 -60 -33 -41 -37 -51 -21
-51 6 0 10 4 10 9 0 6 12 22 26 38 14 16 23 35 21 45 -3 10 -1 18 3 18 8 0 6
21 -9 134 l-6 49 -25 -36z"/>
<path d="M330 465 c-10 -13 -9 -15 9 -15 12 0 19 -4 16 -10 -3 -5 -1 -10 5
-10 7 0 10 -7 7 -14 -4 -10 -1 -13 8 -10 7 3 16 -3 20 -15 4 -12 12 -18 21
-14 8 3 14 -1 14 -9 0 -16 50 -67 50 -52 1 5 7 -2 14 -16 8 -14 12 -28 10 -31
-4 -8 41 -54 47 -49 2 2 15 -2 28 -9 19 -11 21 -15 10 -23 -10 -7 -6 -8 14 -4
18 4 27 2 27 -6 0 -9 3 -10 8 -2 4 7 15 8 27 3 14 -5 15 -8 5 -9 -8 -1 14 -8
50 -15 125 -24 289 -17 352 16 10 5 19 5 23 -1 3 -6 11 -10 16 -10 6 0 3 7 -5
16 -13 12 -22 13 -53 4 -21 -6 -78 -13 -128 -16 -180 -13 -405 60 -405 130 0
14 -11 26 -30 34 -18 8 -33 24 -36 39 -4 13 -17 29 -31 34 -13 5 -33 25 -44
44 -23 39 -31 42 -49 20z"/>
<path d="M303 317 c-1 -13 10 -33 28 -49 34 -32 51 -38 26 -10 -10 10 -14 22
-10 25 3 4 -4 7 -16 7 -18 0 -22 4 -18 20 3 11 2 22 -2 24 -4 3 -8 -5 -8 -17z"/>
<path d="M474 221 c3 -5 -4 -11 -15 -14 -24 -6 -19 -22 9 -29 15 -4 19 0 19
23 0 16 -4 29 -9 29 -5 0 -7 -4 -4 -9z"/>
<path d="M556 170 c4 -14 12 -28 18 -32 11 -8 15 -9 51 -13 11 -1 35 -5 53 -9
21 -5 32 -4 32 3 0 10 -52 16 -89 12 -7 -2 -10 2 -6 9 5 9 1 10 -13 6 -16 -5
-25 0 -37 21 -15 27 -15 27 -9 3z"/>
<path d="M1720 169 c0 -6 -4 -8 -9 -5 -13 8 -42 -4 -35 -15 3 -5 10 -9 15 -9
6 0 7 5 3 11 -4 7 0 9 12 5 25 -7 53 8 30 17 -9 4 -16 2 -16 -4z"/>
<path d="M1580 141 c0 -16 -40 -23 -55 -11 -8 7 -20 10 -27 7 -8 -3 -5 -6 7
-7 56 -6 -80 -20 -225 -24 -93 -3 -145 -1 -120 3 36 6 27 8 -46 7 -51 -1 -87
-4 -80 -8 6 -4 -9 -7 -34 -7 -37 1 -41 2 -20 9 19 6 13 8 -30 9 -30 1 -66 3
-80 6 -14 3 -7 -2 15 -10 l40 -15 -60 6 c-33 2 -80 7 -105 10 -39 4 -42 3 -25
-8 33 -21 602 -23 740 -4 61 9 128 19 150 22 22 3 42 8 45 11 3 3 -12 3 -33 0
-22 -3 -35 -2 -32 4 4 5 -1 9 -9 9 -9 0 -16 -4 -16 -9z"/>
</g>
</svg>
