<?xml version="1.0" standalone="no"?>
<!DOCTYPE svg PUBLIC "-//W3C//DTD SVG 20010904//EN"
 "http://www.w3.org/TR/2001/REC-SVG-20010904/DTD/svg10.dtd">
<svg version="1.0" xmlns="http://www.w3.org/2000/svg"
 width="225.000000pt" height="225.000000pt" viewBox="0 0 225.000000 225.000000"
 preserveAspectRatio="xMidYMid meet">
<metadata>
Created by potrace 1.10, written by Peter Selinger 2001-2011
</metadata>
<g transform="translate(0.000000,225.000000) scale(0.100000,-0.100000)"
fill="#000000" stroke="none">
<path d="M853 1966 c-153 -35 -302 -152 -366 -287 -47 -101 -61 -165 -60 -295
0 -103 -2 -111 -21 -120 -35 -15 -42 -56 -24 -131 9 -38 19 -97 22 -132 8 -87
31 -125 78 -129 34 -3 38 -7 54 -49 29 -75 110 -190 189 -268 192 -190 345
-179 547 40 53 58 130 174 153 231 12 30 23 42 48 50 45 13 77 81 86 180 l6
75 95 84 c79 70 97 82 106 70 11 -15 34 -20 34 -8 0 4 -10 18 -22 31 l-23 24
26 21 c15 12 56 48 93 81 55 49 68 56 81 46 12 -10 15 -10 15 2 0 7 -22 36
-50 63 -46 45 -49 47 -47 23 2 -20 -15 -40 -83 -101 l-85 -76 -26 25 c-27 26
-49 22 -25 -5 13 -14 7 -23 -49 -74 l-64 -58 0 113 c0 69 -7 136 -16 173 -62
241 -262 400 -515 411 -60 2 -118 -1 -157 -10z m217 -36 c95 -15 219 -79 288
-149 63 -62 113 -155 131 -239 14 -67 15 -272 1 -272 -5 0 -10 11 -10 25 0 68
-64 151 -140 184 -28 12 -90 27 -138 32 -212 25 -263 36 -292 64 -34 33 -54
99 -55 182 0 35 -3 63 -6 63 -18 0 -31 -66 -27 -128 6 -79 34 -140 75 -164 33
-19 113 -34 233 -43 208 -15 302 -83 317 -229 l5 -52 -56 -51 c-31 -28 -56
-58 -56 -66 0 -9 12 -30 27 -47 19 -23 32 -31 50 -27 28 5 28 6 2 -79 -42
-136 -110 -243 -220 -350 -89 -85 -132 -112 -190 -120 -64 -9 -120 10 -191 65
-133 101 -247 277 -284 438 -25 108 -26 291 -1 355 35 92 148 158 267 158 66
0 80 15 24 26 -125 23 -276 -46 -317 -144 -8 -21 -19 -48 -25 -62 -17 -41 -15
194 3 259 49 184 197 325 385 365 80 18 117 19 200 6z m648 -611 c-2 -3 -71
-68 -155 -142 -142 -128 -152 -135 -167 -118 -9 10 -16 20 -16 24 0 3 68 67
152 141 144 128 153 135 170 119 10 -9 17 -20 16 -24z m-1260 -81 c7 -7 12
-41 12 -82 1 -68 20 -201 35 -238 11 -28 -31 -23 -50 6 -9 13 -20 62 -25 108
-5 45 -13 96 -19 111 -21 54 -9 107 24 107 6 0 16 -5 23 -12z m1062 -235 c-11
-49 -42 -103 -60 -103 -4 0 -2 24 6 53 7 28 14 62 14 73 0 12 10 34 23 50 l22
29 4 -25 c1 -14 -2 -48 -9 -77z"/>
<path d="M683 1299 c-44 -8 -118 -42 -128 -59 -9 -15 8 -12 56 10 55 25 111
25 180 2 54 -19 79 -19 79 -1 0 12 -74 45 -115 51 -16 3 -49 1 -72 -3z"/>
<path d="M1173 1299 c-47 -9 -103 -35 -103 -49 0 -20 21 -20 77 0 72 25 119
25 185 0 61 -23 61 -23 53 -10 -11 17 -83 50 -128 58 -23 5 -61 5 -84 1z"/>
<path d="M810 1138 c-25 -5 -79 -8 -122 -6 -71 3 -75 2 -66 -15 13 -26 57 -40
103 -33 50 6 155 46 155 57 0 10 -9 10 -70 -3z"/>
<path d="M1050 1142 c0 -13 104 -52 157 -59 47 -6 99 10 112 36 8 14 -1 16
-82 16 -51 0 -113 4 -139 8 -29 5 -48 4 -48 -1z"/>
<path d="M1320 1048 c0 -8 -20 -32 -45 -52 -25 -21 -45 -43 -45 -50 0 -6 -20
-32 -45 -56 -51 -50 -62 -80 -12 -33 45 42 77 62 91 57 6 -2 29 14 51 36 21
22 45 40 52 40 19 0 17 5 -17 42 -21 22 -30 27 -30 16z"/>
<path d="M900 926 c0 -8 14 -19 31 -25 44 -15 46 -14 19 14 -26 28 -50 33 -50
11z"/>
<path d="M1036 919 c-15 -12 -25 -23 -23 -26 9 -8 78 27 72 37 -9 15 -19 12
-49 -11z"/>
<path d="M925 792 c-34 -7 -115 -44 -115 -52 0 -5 18 -22 39 -39 108 -86 220
-81 309 12 l33 34 -48 21 c-58 25 -79 28 -119 18 -17 -4 -41 -3 -55 2 -13 5
-33 6 -44 4z m49 -31 c16 -7 34 -6 54 1 23 9 40 9 74 -2 40 -12 41 -14 18 -21
-33 -9 -140 -11 -210 -2 l-55 6 30 13 c37 16 56 17 89 5z m-6 -46 c42 -4 100
-2 127 3 l50 10 -28 -23 c-57 -49 -143 -54 -219 -12 -37 20 -54 45 -23 33 9
-3 50 -8 93 -11z"/>
<path d="M667 519 c6 -79 -8 -173 -31 -220 -19 -38 -5 -37 28 1 14 17 28 49
32 75 10 68 1 167 -18 194 -16 23 -16 20 -11 -50z"/>
<path d="M1269 543 c-21 -60 -17 -171 9 -219 12 -23 28 -44 37 -48 11 -4 15
-2 11 6 -27 66 -37 126 -34 208 2 50 0 90 -4 90 -3 0 -12 -17 -19 -37z"/>
</g>
</svg>
