<?xml version="1.0" standalone="no"?>
<!DOCTYPE svg PUBLIC "-//W3C//DTD SVG 20010904//EN"
 "http://www.w3.org/TR/2001/REC-SVG-20010904/DTD/svg10.dtd">
<svg version="1.0" xmlns="http://www.w3.org/2000/svg"
 width="225.000000pt" height="225.000000pt" viewBox="0 0 225.000000 225.000000"
 preserveAspectRatio="xMidYMid meet">
<metadata>
Created by potrace 1.10, written by Peter Selinger 2001-2011
</metadata>
<g transform="translate(0.000000,225.000000) scale(0.100000,-0.100000)"
fill="#000000" stroke="none">
<path d="M1650 2154 c-78 -59 -233 -193 -238 -203 -1 -4 24 -32 55 -63 l58
-57 71 62 c39 34 106 91 150 127 69 57 79 70 82 101 4 46 -22 78 -68 85 -32 5
-44 0 -110 -52z m125 3 c33 -25 11 -58 -96 -147 -143 -119 -148 -123 -164
-117 -7 3 -22 18 -32 33 l-17 27 44 40 c111 99 217 177 241 177 3 0 13 -6 24
-13z"/>
<path d="M1264 1728 c-268 -277 -449 -557 -548 -848 -34 -100 -76 -271 -76
-307 0 -35 17 4 29 67 35 185 127 405 249 595 91 143 191 264 350 425 158 159
162 165 144 183 -18 17 -22 14 -148 -115z"/>
<path d="M640 1663 c-55 -8 -70 -14 -100 -39 -67 -57 -95 -169 -78 -320 9 -85
19 -133 67 -306 l22 -76 -21 -99 c-34 -159 -37 -263 -11 -362 42 -161 155
-343 231 -369 24 -9 33 -7 52 8 27 21 28 59 7 220 -24 195 2 351 79 468 64 98
151 129 228 82 57 -36 119 -146 149 -268 19 -75 21 -282 4 -361 -12 -59 -8
-124 11 -146 7 -8 29 -15 50 -15 33 0 44 7 82 49 50 56 109 170 150 289 48
143 59 256 44 482 l-8 125 46 153 c52 174 59 249 27 317 -21 44 -86 110 -143
144 l-38 23 0 -35 c0 -31 6 -40 51 -72 56 -40 89 -97 88 -155 0 -45 -20 -130
-59 -255 -35 -110 -37 -137 -25 -363 5 -100 4 -161 -5 -205 -29 -151 -110
-338 -180 -417 -48 -55 -48 -53 -24 124 26 184 1 354 -71 496 -37 73 -107 145
-162 166 -101 39 -219 -29 -292 -166 -70 -133 -89 -310 -55 -522 9 -55 13
-102 10 -105 -9 -10 -33 15 -81 85 -59 87 -101 192 -115 289 -12 80 -8 121 32
335 12 65 11 72 -20 180 -52 182 -62 237 -62 338 0 80 4 103 23 140 27 53 63
81 105 82 24 1 32 6 32 19 0 9 3 24 6 33 6 16 3 17 -46 9z"/>
<path d="M690 1329 c0 -32 5 -104 12 -160 l11 -102 38 76 c20 41 54 104 74
138 20 34 35 63 33 64 -3 2 -71 20 -135 35 l-33 8 0 -59z m95 1 c25 -10 26
-10 9 -42 -32 -63 -56 -91 -65 -76 -10 15 -12 112 -2 121 9 10 27 9 58 -3z"/>
<path d="M1305 1364 c-60 -13 -138 -27 -171 -31 l-61 -6 -60 -91 c-67 -101
-133 -210 -133 -220 0 -3 19 6 42 21 33 23 55 28 115 31 64 4 80 1 128 -22
126 -62 222 -236 256 -467 14 -98 22 -86 39 67 10 90 4 178 -21 307 -15 83
-11 204 11 317 11 58 20 108 20 112 0 13 -50 8 -165 -18z m125 -31 c0 -9 -7
-55 -16 -102 -19 -98 -15 -213 12 -379 21 -133 8 -153 -32 -51 -80 203 -196
299 -360 299 l-64 0 10 26 c6 14 31 57 57 94 52 76 32 66 218 105 44 9 85 18
90 20 6 2 27 4 48 4 28 1 37 -3 37 -16z"/>
</g>
</svg>
