<?xml version="1.0" standalone="no"?>
<!DOCTYPE svg PUBLIC "-//W3C//DTD SVG 20010904//EN"
 "http://www.w3.org/TR/2001/REC-SVG-20010904/DTD/svg10.dtd">
<svg version="1.0" xmlns="http://www.w3.org/2000/svg"
 width="218.000000pt" height="198.000000pt" viewBox="0 0 218.000000 198.000000"
 preserveAspectRatio="xMidYMid meet">
<metadata>
Created by potrace 1.10, written by Peter Selinger 2001-2011
</metadata>
<g transform="translate(0.000000,198.000000) scale(0.100000,-0.100000)"
fill="#000000" stroke="none">
<path d="M716 1393 c-120 -43 -347 -87 -541 -104 -66 -6 -126 -13 -132 -15
-25 -7 -12 -31 33 -65 64 -48 162 -164 252 -299 143 -215 358 -403 515 -452
64 -20 93 -23 252 -23 172 0 184 1 269 29 178 59 345 204 507 443 63 92 128
173 197 243 56 57 101 109 98 116 -2 6 -44 14 -103 18 -180 14 -455 66 -587
111 -22 8 -72 15 -109 15 -55 0 -80 -6 -134 -31 -99 -46 -182 -43 -288 11 -47
24 -168 26 -229 3z m229 -48 c29 -14 78 -31 109 -37 63 -14 123 -2 211 38 58
28 133 31 197 10 132 -45 372 -92 516 -103 45 -3 82 -9 82 -13 0 -4 -44 -18
-97 -29 -54 -12 -107 -24 -118 -27 -27 -7 -600 -28 -745 -28 -63 0 -252 5
-420 12 -264 10 -320 15 -414 36 -125 29 -155 46 -83 46 99 0 385 52 517 94
103 33 176 33 245 1z m-687 -231 c121 -106 195 -157 319 -220 290 -147 566
-172 865 -78 167 53 375 176 511 304 43 40 79 71 81 69 2 -2 -27 -40 -65 -84
-39 -43 -95 -117 -126 -165 -154 -233 -315 -377 -488 -435 -105 -36 -354 -47
-455 -21 -182 47 -366 201 -537 451 -45 66 -110 150 -143 188 -34 37 -59 67
-55 67 3 0 45 -34 93 -76z m81 31 c2 -2 1 -12 -3 -21 -6 -14 -9 -15 -28 -2
-35 23 -36 42 -2 34 16 -4 31 -9 33 -11z m1591 6 c0 -5 -13 -19 -29 -31 l-30
-21 -11 21 c-8 15 -8 21 2 24 7 3 20 7 28 9 25 9 40 8 40 -2z m-1517 -80 c9
-63 5 -71 -23 -46 -27 25 -29 108 -3 103 13 -2 20 -18 26 -57z m70 47 c12 -9
19 -37 25 -91 5 -42 6 -76 3 -74 -62 32 -69 41 -75 100 -8 78 5 96 47 65z
m217 4 c0 -5 -8 -16 -18 -25 -14 -13 -21 -14 -30 -5 -21 21 -13 38 18 38 17 0
30 -4 30 -8z m180 -1 l25 -1 -27 -27 c-27 -26 -28 -26 -48 -8 -27 25 -26 46 3
41 12 -3 33 -5 47 -5z m515 -2 c3 -3 -6 -16 -20 -29 l-25 -23 -26 24 -26 24
34 6 c37 6 55 5 63 -2z m165 -9 c-12 -23 -33 -26 -49 -7 -14 18 -4 27 31 27
26 0 28 -2 18 -20z m206 5 c4 -9 3 -40 -1 -70 -6 -48 -10 -56 -40 -74 l-35
-20 7 77 c3 42 10 83 16 90 13 17 46 15 53 -3z m60 -10 c9 -34 -3 -72 -25 -84
-17 -10 -18 -7 -14 37 3 26 6 53 8 60 7 21 24 13 31 -13z m-1230 -7 c39 -44
53 -76 62 -144 5 -38 8 -71 6 -73 -5 -6 -118 49 -126 62 -11 17 -10 121 2 151
12 32 30 33 56 4z m1064 3 c5 -11 10 -51 10 -90 l0 -71 -50 -25 c-78 -39 -84
-36 -76 37 8 67 15 85 53 136 27 36 48 41 63 13z m-507 3 c7 -7 -33 -54 -47
-54 -12 0 -56 40 -56 52 0 9 93 11 103 2z m-366 -26 c39 -43 53 -84 53 -157 0
-38 -4 -71 -10 -73 -5 -1 -38 -1 -72 2 -58 5 -62 7 -69 34 -4 15 -9 54 -11 86
-2 50 1 62 25 94 32 42 55 45 84 14z m712 -15 c30 -36 31 -41 25 -98 -13 -110
-12 -109 -83 -115 -35 -3 -67 -2 -73 1 -11 7 -6 130 7 164 15 38 56 85 75 85
10 0 32 -17 49 -37z m-459 -19 l50 -47 0 -88 c0 -80 -2 -89 -22 -100 -27 -14
-119 -6 -171 16 l-37 15 0 83 c0 62 4 89 18 110 48 72 93 75 162 11z m248 30
c38 -27 52 -67 52 -154 l0 -81 -36 -15 c-19 -8 -64 -18 -98 -21 -86 -8 -96 4
-96 107 0 71 3 82 27 111 33 38 80 69 108 69 11 0 31 -7 43 -16z"/>
</g>
</svg>
