<?xml version="1.0" standalone="no"?>
<!DOCTYPE svg PUBLIC "-//W3C//DTD SVG 20010904//EN"
 "http://www.w3.org/TR/2001/REC-SVG-20010904/DTD/svg10.dtd">
<svg version="1.0" xmlns="http://www.w3.org/2000/svg"
 width="225.000000pt" height="225.000000pt" viewBox="0 0 225.000000 225.000000"
 preserveAspectRatio="xMidYMid meet">
<metadata>
Created by potrace 1.10, written by Peter Selinger 2001-2011
</metadata>
<g transform="translate(0.000000,225.000000) scale(0.100000,-0.100000)"
fill="#000000" stroke="none">
<path d="M1075 1994 c-22 -25 -41 -46 -43 -48 -1 -2 4 -9 12 -15 12 -10 18 -9
33 8 9 12 20 21 23 21 3 0 6 -35 5 -77 0 -71 2 -78 20 -78 18 0 20 7 20 78 -1
71 8 97 21 63 8 -21 31 -27 43 -12 8 9 -1 25 -34 59 -24 26 -48 47 -52 46 -4
0 -26 -20 -48 -45z"/>
<path d="M386 1789 c-30 -104 -31 -115 -10 -123 10 -4 19 4 28 26 l14 32 31
-56 c40 -70 54 -83 70 -64 10 12 6 25 -21 68 -19 29 -37 58 -41 65 -6 9 2 10
28 6 28 -5 35 -2 35 11 0 29 -126 62 -134 35z"/>
<path d="M1775 1787 c-25 -8 -41 -20 -43 -31 -4 -17 1 -18 32 -13 27 4 35 3
29 -6 -4 -7 -22 -36 -41 -65 -27 -43 -31 -56 -21 -68 16 -19 30 -6 70 64 l31
56 14 -32 c9 -22 18 -30 28 -26 19 7 19 14 2 79 -15 57 -31 63 -101 42z"/>
<path d="M942 1668 c-18 -22 2 -42 33 -34 18 5 25 12 23 24 -4 21 -41 28 -56
10z"/>
<path d="M1253 1664 c-6 -17 12 -34 39 -34 23 0 32 18 18 35 -16 20 -49 19
-57 -1z"/>
<path d="M1052 1639 c4 -30 33 -48 50 -31 17 17 -1 46 -31 50 -18 3 -22 -1
-19 -19z"/>
<path d="M1155 1644 c-17 -17 -16 -35 3 -41 14 -5 54 35 47 47 -9 15 -32 12
-50 -6z"/>
<path d="M848 1629 c-21 -12 -24 -35 -5 -42 20 -7 47 12 47 33 0 22 -15 25
-42 9z"/>
<path d="M1363 1624 c-6 -16 19 -44 39 -44 19 0 21 33 3 46 -25 18 -34 18 -42
-2z"/>
<path d="M758 1566 c-24 -18 -23 -46 1 -46 24 0 45 25 37 45 -7 18 -16 19 -38
1z"/>
<path d="M1455 1560 c-15 -24 36 -58 54 -36 9 11 8 18 -4 30 -19 18 -41 21
-50 6z"/>
<path d="M1104 1545 c-4 -9 -2 -21 4 -27 15 -15 44 -1 40 19 -4 23 -36 29 -44
8z"/>
<path d="M666 1485 c-20 -15 -16 -45 7 -45 20 0 40 27 33 45 -7 18 -16 19 -40
0z"/>
<path d="M1544 1485 c-8 -20 13 -45 37 -45 24 0 25 28 2 46 -23 18 -32 17 -39
-1z"/>
<path d="M575 1416 c-18 -13 -16 -46 3 -46 20 0 45 28 39 44 -8 20 -17 20 -42
2z"/>
<path d="M1639 1414 c-11 -14 -10 -18 6 -30 23 -17 50 -14 50 5 0 7 -9 20 -21
28 -18 12 -23 11 -35 -3z"/>
<path d="M805 1396 c-33 -12 -91 -42 -130 -66 -80 -49 -134 -74 -220 -101 -59
-18 -206 -45 -275 -51 -64 -5 -49 -30 62 -103 186 -122 395 -211 599 -257 138
-31 426 -33 559 -5 205 44 411 131 603 257 118 76 134 102 67 108 -192 16
-363 69 -505 157 -166 104 -317 113 -405 25 l-35 -35 -35 35 c-63 63 -176 78
-285 36z m215 -38 c33 -17 51 -35 68 -68 12 -25 29 -45 37 -45 8 0 25 20 37
45 49 97 171 116 306 46 37 -18 111 -56 165 -84 100 -51 227 -92 287 -92 125
0 -154 -46 -430 -71 -148 -13 -582 -13 -730 0 -276 25 -555 71 -430 71 18 0
69 9 111 21 71 19 119 41 339 155 35 18 76 35 90 37 65 10 108 6 150 -15z
m-680 -257 c103 -23 364 -52 565 -63 321 -17 789 13 1024 68 35 8 66 13 68 10
3 -3 -149 -92 -224 -130 -73 -37 -214 -88 -304 -111 -261 -66 -534 -54 -796
35 -97 34 -413 188 -413 202 0 5 8 7 18 4 9 -3 37 -10 62 -15z"/>
<path d="M475 1357 c-11 -9 -16 -20 -12 -30 8 -22 52 -7 52 18 0 24 -16 29
-40 12z"/>
<path d="M1741 1356 c-10 -12 -7 -18 13 -31 14 -9 30 -14 36 -10 16 10 12 33
-9 45 -25 13 -26 13 -40 -4z"/>
<path d="M377 1319 c-9 -6 -17 -17 -17 -24 0 -19 46 -20 53 -1 8 21 -14 37
-36 25z"/>
<path d="M1845 1310 c-4 -7 -3 -16 3 -22 14 -14 47 -6 47 12 0 18 -40 26 -50
10z"/>
<path d="M360 906 c0 -7 7 -19 15 -26 19 -16 41 1 32 24 -8 20 -47 21 -47 2z"/>
<path d="M1852 908 c-17 -21 3 -46 25 -32 10 6 18 17 18 25 0 19 -29 23 -43 7z"/>
<path d="M444 845 c-7 -18 13 -45 33 -45 23 0 27 30 7 45 -24 19 -33 18 -40 0z"/>
<path d="M1775 846 c-20 -15 -15 -46 8 -46 20 0 40 27 33 45 -7 19 -17 19 -41
1z"/>
<path d="M530 771 c0 -21 43 -41 58 -27 11 11 -14 41 -37 44 -16 3 -21 -2 -21
-17z"/>
<path d="M1682 778 c-28 -28 -1 -56 31 -33 9 7 17 20 17 29 0 19 -30 22 -48 4z"/>
<path d="M625 720 c-9 -15 14 -40 36 -40 23 0 26 35 3 44 -22 9 -32 7 -39 -4z"/>
<path d="M1584 716 c-17 -14 -18 -16 -3 -31 14 -15 18 -14 39 3 39 31 5 58
-36 28z"/>
<path d="M725 670 c-9 -15 14 -40 36 -40 23 0 26 35 3 44 -22 9 -32 7 -39 -4z"/>
<path d="M1485 666 c-15 -11 -17 -17 -8 -27 17 -17 65 -3 61 19 -4 22 -29 26
-53 8z"/>
<path d="M824 628 c-7 -12 21 -38 42 -38 20 0 27 19 14 35 -15 18 -46 20 -56
3z"/>
<path d="M1385 627 c-20 -16 -13 -37 14 -37 23 0 41 19 34 36 -7 18 -24 18
-48 1z"/>
<path d="M454 563 l-38 -67 -8 32 c-8 31 -30 42 -43 23 -7 -13 14 -102 29
-118 9 -10 23 -9 65 2 62 16 66 19 57 40 -4 13 -13 15 -37 10 l-31 -7 42 66
c23 36 39 70 35 76 -14 23 -36 6 -71 -57z"/>
<path d="M1725 620 c-4 -6 12 -40 35 -76 l42 -66 -31 7 c-24 5 -33 3 -37 -10
-9 -21 -5 -24 57 -40 42 -11 56 -12 65 -2 15 16 36 105 29 118 -13 19 -35 8
-43 -23 l-8 -32 -38 67 c-35 63 -57 80 -71 57z"/>
<path d="M934 598 c-7 -12 21 -38 42 -38 20 0 27 19 14 35 -15 18 -46 20 -56
3z"/>
<path d="M1270 595 c-14 -17 -5 -35 19 -35 22 0 45 25 36 40 -9 15 -41 12 -55
-5z"/>
<path d="M1172 589 c-29 -11 -24 -33 7 -37 32 -5 50 14 31 32 -11 10 -22 11
-38 5z"/>
<path d="M1042 573 c2 -13 12 -18 33 -18 43 0 40 29 -3 33 -28 3 -33 0 -30
-15z"/>
<path d="M1110 415 c-9 -11 -11 -36 -7 -87 l6 -71 -23 22 c-25 23 -41 27 -52
10 -7 -12 73 -99 91 -99 18 0 98 87 91 99 -11 17 -27 13 -52 -10 l-23 -21 6
74 c4 58 2 76 -9 86 -12 10 -18 9 -28 -3z"/>
</g>
</svg>
