<?xml version="1.0" standalone="no"?>
<!DOCTYPE svg PUBLIC "-//W3C//DTD SVG 20010904//EN"
 "http://www.w3.org/TR/2001/REC-SVG-20010904/DTD/svg10.dtd">
<svg version="1.0" xmlns="http://www.w3.org/2000/svg"
 width="200.000000pt" height="200.000000pt" viewBox="0 0 200.000000 200.000000"
 preserveAspectRatio="xMidYMid meet">
<metadata>
Created by potrace 1.10, written by Peter Selinger 2001-2011
</metadata>
<g transform="translate(0.000000,200.000000) scale(0.100000,-0.100000)"
fill="#000000" stroke="none">
<path d="M1815 1884 c-32 -16 -285 -263 -285 -277 0 -5 -20 -39 -44 -75 -27
-42 -132 -155 -275 -297 -127 -126 -231 -235 -231 -242 0 -19 134 -17 201 3
132 39 268 146 365 290 49 71 68 90 114 115 37 20 102 76 195 169 l139 140 0
54 c0 62 -23 98 -81 122 -41 18 -61 17 -98 -2z m115 -59 c16 -17 24 -37 24
-61 0 -31 -12 -47 -122 -157 l-122 -121 -38 37 c-35 34 -40 36 -52 22 -11 -14
-8 -21 23 -53 l37 -38 -46 -23 -47 -22 -37 36 -38 37 36 64 c24 43 74 101 157
184 115 113 124 120 162 120 29 0 46 -6 63 -25z m-372 -442 c9 -4 -78 -123
-131 -180 -96 -102 -204 -163 -322 -181 -30 -5 -55 -8 -55 -8 0 1 98 99 217
219 l218 216 35 -32 c19 -18 36 -33 38 -34z"/>
<path d="M986 1491 c-11 -18 7 -201 21 -213 28 -23 34 5 23 106 -5 54 -13 102
-16 107 -7 11 -21 12 -28 0z"/>
<path d="M774 1437 c-7 -20 104 -217 123 -217 30 0 22 31 -34 125 -58 99 -78
119 -89 92z"/>
<path d="M620 1273 c1 -21 165 -137 180 -128 23 14 6 36 -70 89 -83 58 -110
68 -110 39z"/>
<path d="M490 1055 c-71 -20 -152 -69 -198 -120 l-36 -40 -126 -5 c-102 -4
-125 -8 -125 -20 0 -12 23 -15 137 -18 l137 -3 45 49 c115 123 291 160 442 93
43 -19 48 -20 77 -5 16 9 49 22 71 28 24 7 42 19 44 29 5 23 -33 22 -101 -3
l-54 -20 -48 21 c-64 28 -189 35 -265 14z"/>
<path d="M1274 945 c-3 -8 9 -32 28 -54 l33 -41 136 0 c108 0 138 3 142 14 3
8 3 17 0 20 -4 3 -61 6 -128 6 l-121 0 -34 35 c-37 38 -48 42 -56 20z"/>
<path d="M522 864 c-127 -63 -168 -229 -90 -354 15 -23 26 -66 34 -128 18
-132 84 -264 139 -278 45 -11 62 10 95 118 40 129 51 148 91 148 56 0 66 -14
105 -136 30 -95 41 -117 61 -127 71 -32 168 120 180 283 3 41 12 82 19 90 30
35 56 113 56 170 0 141 -97 240 -237 240 -62 0 -129 -23 -153 -53 -12 -14 -18
-12 -58 16 -39 27 -55 32 -117 35 -62 3 -79 0 -125 -24z m194 -39 c34 -17 58
-38 74 -66 32 -52 49 -71 61 -64 14 9 11 39 -6 61 -24 31 -18 41 40 70 63 30
113 30 179 -1 43 -21 90 -86 100 -139 9 -47 -10 -123 -41 -171 -21 -32 -28
-57 -34 -126 -5 -60 -14 -101 -33 -140 -32 -66 -68 -111 -81 -101 -6 4 -21 42
-33 85 -34 119 -51 149 -96 171 -36 17 -43 18 -80 5 -50 -17 -71 -51 -107
-173 -16 -55 -32 -91 -40 -91 -17 0 -64 69 -85 125 -9 25 -19 81 -23 125 -6
61 -13 89 -33 120 -34 51 -51 119 -43 164 26 140 157 208 281 146z"/>
</g>
</svg>
