<?xml version="1.0" standalone="no"?>
<!DOCTYPE svg PUBLIC "-//W3C//DTD SVG 20010904//EN"
 "http://www.w3.org/TR/2001/REC-SVG-20010904/DTD/svg10.dtd">
<svg version="1.0" xmlns="http://www.w3.org/2000/svg"
 width="225.000000pt" height="225.000000pt" viewBox="0 0 225.000000 225.000000"
 preserveAspectRatio="xMidYMid meet">
<metadata>
Created by potrace 1.10, written by Peter Selinger 2001-2011
</metadata>
<g transform="translate(0.000000,225.000000) scale(0.100000,-0.100000)"
fill="#000000" stroke="none">
<path d="M1416 1633 c-130 -129 -237 -352 -290 -603 -9 -41 -30 -102 -47 -135
-26 -51 -30 -68 -26 -114 3 -47 9 -59 40 -87 46 -43 96 -52 148 -28 91 41 109
135 49 254 -32 64 -33 66 -27 165 11 187 81 371 204 532 31 40 38 73 15 73 -4
0 -34 -26 -66 -57z m-134 -285 c-36 -88 -53 -168 -59 -273 -5 -98 -5 -101 27
-160 17 -33 34 -81 37 -107 5 -44 3 -50 -30 -83 -57 -57 -132 -43 -163 30 -16
38 -5 87 32 151 13 22 30 76 39 120 24 125 118 395 132 380 3 -3 -4 -29 -15
-58z"/>
<path d="M720 1647 c-110 -66 -112 -68 -99 -83 10 -12 16 -11 43 5 l31 20 24
-41 c25 -45 27 -43 -41 -78 -43 -23 -54 -38 -40 -52 8 -8 15 -8 25 1 18 15 16
17 112 -152 79 -139 102 -167 141 -167 12 0 27 -7 34 -15 7 -8 20 -15 29 -15
10 0 27 -18 41 -42 35 -65 40 -70 56 -57 12 10 10 19 -12 57 -27 46 -41 137
-23 148 24 15 4 70 -76 208 -47 80 -85 148 -85 152 0 4 8 13 18 20 13 10 14
15 5 25 -9 9 -24 4 -66 -20 -30 -17 -57 -31 -61 -31 -3 0 -15 18 -26 40 l-20
39 30 16 c33 17 41 46 13 44 -10 0 -34 -10 -53 -22z m213 -281 c48 -85 87
-157 87 -160 0 -8 -103 -66 -117 -66 -7 0 -17 9 -23 20 -9 16 -6 22 20 35 31
16 41 45 15 45 -9 0 -26 -7 -39 -15 -22 -15 -24 -14 -40 9 -21 33 -20 43 3 51
29 9 46 34 33 47 -7 7 -20 5 -45 -10 l-34 -21 -15 33 c-16 32 -16 33 13 50 29
17 40 46 16 46 -7 0 -23 -7 -36 -16 -23 -16 -24 -16 -42 7 l-18 24 62 36 c34
21 64 38 67 38 3 0 44 -69 93 -153z"/>
<path d="M1495 959 c-33 -4 -79 -6 -101 -3 -23 3 -44 2 -47 -3 -3 -5 3 -33 13
-63 24 -67 25 -104 5 -161 -55 -154 -263 -172 -343 -30 -29 51 -29 139 -2 200
11 24 18 46 16 49 -3 2 -73 5 -155 6 -116 1 -151 -1 -151 -11 0 -19 45 -27
155 -28 l101 0 -13 -35 c-51 -143 35 -290 184 -315 86 -14 190 41 231 121 31
61 34 145 7 216 -5 13 12 16 106 22 107 6 146 17 133 37 -6 10 -54 10 -139 -2z"/>
</g>
</svg>
