<?xml version="1.0" standalone="no"?>
<!DOCTYPE svg PUBLIC "-//W3C//DTD SVG 20010904//EN"
 "http://www.w3.org/TR/2001/REC-SVG-20010904/DTD/svg10.dtd">
<svg version="1.0" xmlns="http://www.w3.org/2000/svg"
 width="231.000000pt" height="218.000000pt" viewBox="0 0 231.000000 218.000000"
 preserveAspectRatio="xMidYMid meet">
<metadata>
Created by potrace 1.10, written by Peter Selinger 2001-2011
</metadata>
<g transform="translate(0.000000,218.000000) scale(0.100000,-0.100000)"
fill="#000000" stroke="none">
<path d="M745 2161 c-47 -12 -108 -47 -137 -78 -56 -58 -74 -156 -43 -230 19
-44 19 -43 -1 -43 -9 0 -51 -16 -92 -36 -92 -44 -202 -150 -249 -239 -60 -116
-78 -194 -77 -345 0 -110 4 -147 22 -200 18 -53 19 -67 8 -75 -21 -16 -36 -52
-36 -86 0 -54 37 -114 114 -186 51 -49 84 -90 114 -146 118 -221 300 -372 447
-372 50 0 74 7 136 37 85 42 119 72 101 90 -8 8 -19 4 -41 -15 -55 -46 -137
-80 -194 -80 -187 0 -426 270 -503 568 -88 342 36 593 331 670 79 20 271 20
350 0 170 -44 277 -141 327 -298 24 -74 28 -239 8 -332 -16 -77 -17 -99 -5
-105 14 -7 34 61 47 157 11 75 14 83 33 83 31 0 57 -33 57 -73 0 -40 -13 -67
-59 -124 -22 -27 -30 -44 -23 -48 28 -18 120 115 120 173 0 29 -25 78 -46 90
-15 8 -15 12 0 40 44 86 58 257 31 387 -37 177 -169 351 -324 428 -40 20 -82
37 -92 37 -22 0 -23 8 -4 34 39 52 26 166 -26 229 -58 70 -200 113 -294 88z
m191 -53 c87 -40 135 -128 115 -206 -20 -71 -26 -74 -111 -61 -72 11 -248 7
-297 -7 -46 -13 -79 91 -52 163 13 34 64 90 101 109 72 38 167 39 244 2z m73
-314 c31 -8 92 -32 137 -54 228 -111 365 -402 310 -659 -15 -73 -45 -146 -58
-146 -4 0 -10 54 -12 120 -7 195 -55 324 -157 425 -123 121 -326 174 -537 140
-202 -33 -354 -164 -418 -363 -22 -68 -27 -101 -28 -199 -1 -153 -19 -158 -57
-18 -19 68 -16 252 5 330 55 205 192 348 394 414 111 37 298 41 421 10z m-13
-220 c167 -43 293 -174 338 -350 24 -93 19 -106 -14 -36 -73 155 -233 244
-462 258 -248 15 -456 -84 -543 -259 -38 -75 -44 -66 -20 27 52 198 197 334
398 372 84 16 217 11 303 -12z m-739 -744 c7 -40 20 -98 28 -128 9 -30 14 -56
12 -59 -3 -2 -25 20 -51 50 -47 56 -76 111 -76 147 0 25 45 73 63 67 7 -2 18
-37 24 -77z"/>
<path d="M460 1044 c-50 -17 -110 -49 -110 -61 0 -18 9 -17 66 8 49 22 102 23
257 3 39 -6 47 -4 47 10 0 9 -3 16 -7 16 -5 0 -53 7 -108 15 -106 15 -121 16
-145 9z"/>
<path d="M1011 1034 c-52 -7 -96 -16 -99 -18 -2 -3 -2 -11 1 -19 4 -12 15 -12
74 -1 102 20 177 18 224 -7 45 -23 80 -19 59 6 -15 18 -113 55 -143 54 -12 -1
-64 -7 -116 -15z"/>
<path d="M404 879 c-3 -6 6 -24 22 -40 25 -26 26 -29 8 -30 -50 -3 -58 -5 -61
-16 -7 -21 46 -27 81 -10 21 10 38 12 47 6 21 -13 87 -11 117 5 45 24 88 74
74 88 -8 8 -22 1 -56 -30 -64 -59 -122 -55 -185 12 -27 28 -36 32 -47 15z"/>
<path d="M926 881 c-9 -14 39 -67 78 -85 37 -17 103 -21 125 -7 8 5 24 3 40
-5 34 -18 65 -18 80 0 14 17 5 24 -32 24 -40 -1 -44 9 -17 37 18 19 21 28 12
37 -8 8 -22 1 -56 -30 -64 -59 -122 -55 -185 12 -26 28 -36 32 -45 17z"/>
<path d="M1065 597 c-34 -52 -26 -67 56 -101 79 -34 164 -86 189 -117 19 -24
92 -49 140 -49 26 0 82 -21 176 -66 240 -114 435 -191 455 -179 16 10 49 83
49 108 0 21 -18 31 -157 90 -87 37 -215 85 -285 108 -90 29 -137 49 -160 71
-43 38 -105 68 -145 68 -56 0 -166 28 -236 59 l-67 30 -15 -22z m134 -64 c3
-2 0 -8 -6 -14 -8 -8 -24 -6 -57 6 -49 19 -61 29 -51 44 4 8 95 -21 114 -36z
m91 -24 c73 -16 72 -14 53 -53 l-16 -35 -36 20 c-60 34 -72 45 -65 63 7 19 6
19 64 5z m130 -21 c-1 -4 -11 -30 -23 -58 -21 -47 -47 -67 -47 -35 0 27 44
106 58 103 7 -2 13 -6 12 -10z m89 -52 c28 -23 76 -46 150 -71 l109 -36 -15
-37 c-8 -20 -16 -38 -17 -40 -2 -1 -40 16 -85 38 -122 60 -150 70 -191 70 -20
0 -39 3 -43 6 -6 6 39 104 47 104 2 0 23 -15 45 -34z m397 -162 c49 -19 90
-37 92 -39 2 -1 -5 -20 -15 -41 -9 -22 -18 -40 -18 -41 -1 -2 -37 12 -81 30
-43 19 -87 37 -97 40 -17 6 -16 9 3 47 11 22 22 40 24 40 2 0 43 -16 92 -36z
m172 -73 c11 -6 10 -15 -4 -44 -19 -40 -22 -41 -44 -27 -12 8 -12 13 3 44 17
38 23 41 45 27z"/>
<path d="M742 580 c7 -33 139 -33 146 1 2 11 -13 14 -73 14 -61 0 -75 -3 -73
-15z"/>
<path d="M717 420 c-26 -16 -47 -34 -47 -39 0 -22 22 -21 53 3 38 29 49 31 77
14 16 -10 24 -10 40 0 28 17 34 16 70 -14 23 -20 34 -24 42 -16 15 15 -10 44
-55 66 -28 13 -35 13 -55 0 -20 -13 -25 -13 -44 1 -29 19 -26 20 -81 -15z"/>
<path d="M735 360 c-9 -15 1 -26 40 -44 29 -14 42 -15 70 -6 42 14 63 36 47
52 -9 9 -16 7 -30 -5 -23 -21 -62 -22 -88 -2 -23 17 -31 18 -39 5z"/>
</g>
</svg>
