<?xml version="1.0" standalone="no"?>
<!DOCTYPE svg PUBLIC "-//W3C//DTD SVG 20010904//EN"
 "http://www.w3.org/TR/2001/REC-SVG-20010904/DTD/svg10.dtd">
<svg version="1.0" xmlns="http://www.w3.org/2000/svg"
 width="254.000000pt" height="137.000000pt" viewBox="0 0 254.000000 137.000000"
 preserveAspectRatio="xMidYMid meet">
<metadata>
Created by potrace 1.10, written by Peter Selinger 2001-2011
</metadata>
<g transform="translate(0.000000,137.000000) scale(0.100000,-0.100000)"
fill="#000000" stroke="none">
<path d="M1032 829 c-13 -5 -28 -7 -33 -3 -5 3 -9 1 -9 -5 0 -6 -16 -10 -35
-9 -20 1 -41 -4 -48 -11 -9 -10 -8 -11 8 -6 11 3 4 -2 -15 -12 -34 -18 -81
-78 -95 -121 -6 -20 -4 -23 12 -20 10 2 18 8 18 13 3 43 40 90 95 120 49 26
154 34 203 16 20 -8 28 -6 39 6 9 12 10 15 1 9 -7 -4 -13 -3 -13 3 0 7 -91 34
-103 30 -1 0 -13 -4 -25 -10z"/>
<path d="M1463 827 c-20 -4 -51 -17 -69 -28 -37 -23 -98 -120 -91 -146 3 -13
9 -7 22 22 26 59 55 97 71 91 7 -3 16 0 20 6 4 7 3 8 -4 4 -7 -4 -12 -5 -12
-2 0 3 10 10 21 17 17 9 20 8 14 -2 -6 -8 -4 -10 4 -5 46 29 243 23 225 -6 -4
-6 -3 -8 4 -4 13 8 69 -58 84 -101 17 -48 53 -46 63 3 3 20 18 47 33 61 15 14
27 30 27 36 0 6 14 13 30 14 17 1 47 4 68 8 45 6 89 -3 80 -18 -4 -6 -1 -7 6
-3 16 10 76 -58 91 -102 13 -35 30 -34 30 1 1 24 39 100 40 79 0 -7 5 -10 10
-7 6 4 8 10 5 15 -3 4 3 14 12 21 9 8 14 9 10 3 -5 -8 6 -9 39 -2 26 6 49 6
53 2 3 -5 11 -9 18 -9 17 0 74 -76 80 -107 3 -16 12 -28 19 -28 18 0 18 24 -1
61 -49 94 -142 137 -223 103 -25 -10 -39 -27 -57 -66 -13 -29 -24 -45 -24 -35
-1 9 -5 17 -10 17 -5 0 -13 9 -16 20 -11 34 -91 82 -144 86 -49 3 -111 -11
-111 -27 0 -5 -5 -8 -12 -6 -15 3 -58 -60 -65 -96 -6 -32 -26 -31 -31 1 -2 12
-7 22 -11 22 -3 0 -14 13 -24 29 -36 60 -172 100 -274 78z"/>
<path d="M583 819 c-5 -5 -24 -11 -41 -11 -17 -1 -29 -4 -27 -8 3 -5 -2 -11
-11 -14 -10 -4 -13 -2 -8 7 3 6 -6 -1 -20 -18 -15 -16 -35 -47 -45 -68 l-18
-39 -11 32 c-6 17 -21 45 -33 63 l-21 32 23 -25 c12 -14 20 -18 17 -10 -9 29
-70 61 -110 58 -21 -1 -38 -6 -38 -11 0 -5 -7 -6 -16 -3 -10 4 -13 2 -8 -6 5
-8 1 -9 -12 -4 -10 4 -15 4 -12 0 4 -4 -4 -15 -17 -26 -28 -22 -43 -46 -55
-89 -7 -25 -6 -29 11 -29 12 0 19 7 19 20 0 60 59 113 127 114 49 1 70 -15
106 -84 31 -60 52 -63 68 -10 7 23 25 52 41 65 46 39 137 57 178 35 13 -7 21
-5 31 8 7 9 10 14 5 10 -5 -4 -15 -1 -23 7 -17 17 -84 20 -100 4z"/>
<path d="M700 782 c0 -4 10 -18 23 -32 12 -14 29 -41 36 -60 17 -43 31 -60 31
-38 0 9 -14 42 -30 74 -17 33 -23 50 -15 40 8 -11 15 -15 15 -9 0 7 -6 15 -12
20 -18 11 -48 14 -48 5z"/>
<path d="M1170 782 c0 -5 13 -21 29 -36 16 -15 37 -45 46 -67 22 -47 37 -52
24 -7 -5 18 -9 34 -9 35 0 2 -16 21 -36 43 -35 38 -54 50 -54 32z"/>
<path d="M204 631 c-4 -23 -10 -41 -15 -41 -5 0 -48 14 -96 30 -94 33 -128 34
-41 2 l53 -20 5 -60 c3 -41 11 -67 25 -82 22 -25 75 -55 75 -43 0 5 4 1 9 -6
13 -21 132 -28 152 -10 41 39 45 40 41 5 -3 -27 2 -38 30 -64 52 -50 106 -73
180 -79 85 -7 135 2 149 28 10 20 9 20 -20 5 -72 -38 -229 -6 -288 59 -30 31
-33 41 -33 96 l0 61 43 -7 c38 -6 76 -25 51 -25 -5 0 -10 -9 -11 -19 -1 -17 7
-20 74 -23 41 -2 80 0 87 4 6 4 -3 8 -20 8 -55 0 -124 12 -124 22 0 5 6 6 13
2 6 -4 9 -4 5 1 -4 4 -3 16 2 26 7 12 7 20 0 24 -8 5 -7 12 2 23 10 12 10 14
1 8 -17 -9 -17 8 0 22 8 7 30 7 68 0 l56 -9 -5 -54 -4 -54 36 6 c22 3 36 2 36
-5 0 -6 11 -9 25 -6 l25 4 0 -85 c0 -54 4 -84 10 -80 5 3 7 0 5 -8 -3 -7 4
-26 16 -41 27 -34 117 -86 137 -78 9 3 13 1 9 -5 -7 -12 93 -33 154 -33 58 0
113 21 140 53 25 30 26 30 40 10 25 -36 63 -52 134 -59 86 -8 170 8 245 46 64
33 115 82 107 104 -4 11 -1 13 11 9 9 -3 22 -10 27 -14 15 -11 86 -23 125 -21
96 5 185 48 224 107 19 29 22 30 100 30 65 0 90 5 125 23 76 40 92 71 82 156
-9 76 -29 70 -24 -6 3 -35 7 -65 8 -66 2 -2 -11 -17 -30 -33 -45 -40 -107 -60
-182 -58 -70 2 -67 -1 -76 85 -5 40 -4 41 34 51 41 11 55 7 60 -17 3 -13 13
-14 56 -7 48 8 51 10 58 43 4 22 10 32 17 28 7 -5 8 -2 3 6 -6 10 -4 12 8 7 9
-3 19 -1 23 5 5 7 -4 9 -30 4 -35 -7 -37 -6 -31 13 8 27 -7 32 -75 23 -55 -7
-55 -7 -55 -42 l-1 -35 -84 -17 c-114 -23 -110 -24 -110 18 l0 35 -57 -7 c-32
-4 -65 -8 -73 -10 -8 -1 -19 -3 -24 -3 -5 -1 -6 -19 -3 -41 5 -36 3 -40 -16
-41 -12 -1 -26 -2 -32 -3 -5 -1 -46 -5 -90 -10 -44 -4 -90 -9 -101 -11 -20 -3
-21 0 -17 36 l6 39 -112 0 -111 0 0 -48 0 -48 -90 -2 c-50 -1 -93 -3 -98 -3
-4 -1 -20 -1 -37 0 -29 1 -30 2 -29 48 l2 48 -72 5 c-39 3 -90 3 -113 1 l-43
-3 0 -45 0 -45 -67 6 c-38 3 -94 8 -126 12 l-57 7 6 47 c7 53 6 54 -72 65 -27
4 -58 8 -70 10 -17 3 -21 -3 -23 -28 -2 -18 -3 -40 -4 -49 -1 -15 -9 -17 -52
-14 -27 2 -70 9 -93 15 l-44 12 7 48 7 48 -49 7 c-26 4 -58 10 -70 13 -20 4
-23 0 -29 -36z m90 0 c26 -6 29 -10 30 -55 l1 -48 -52 4 c-57 5 -75 14 -54 27
9 6 11 18 7 35 -11 45 1 52 68 37z m2062 -28 c3 -16 7 -34 9 -40 4 -13 -71
-41 -81 -30 -4 3 -10 24 -14 46 -6 36 -5 40 14 44 54 11 66 7 72 -20z m-2183
-22 c19 -8 23 -15 20 -34 -5 -24 -3 -25 57 -29 34 -1 68 1 77 5 8 5 30 6 49 2
31 -5 34 -9 30 -33 -2 -15 -5 -34 -5 -43 -1 -21 -43 -39 -91 -39 -90 0 -185
64 -176 118 2 15 5 35 5 45 1 20 2 20 34 8z m1862 -52 c4 -27 5 -53 1 -56 -7
-7 -98 -24 -103 -19 -3 2 -8 29 -12 60 l-8 55 36 4 c84 9 79 11 86 -44z m-933
9 c26 21 42 -3 45 -70 1 -35 7 -76 13 -93 l10 -30 -4 36 c-2 20 -1 40 2 46 6
8 84 11 114 5 4 -1 9 -46 11 -99 l3 -98 2 102 2 101 60 4 c56 3 60 1 60 -18 0
-12 3 -36 6 -53 l7 -32 96 2 c53 1 101 4 108 6 7 3 11 25 11 61 l-2 57 43 -4
c24 -1 41 1 38 6 -3 5 7 7 23 5 l28 -4 -2 -88 c-2 -60 -7 -96 -18 -112 -24
-36 -88 -76 -154 -95 -78 -23 -254 -23 -254 0 0 4 -4 6 -9 2 -6 -3 -20 8 -32
24 l-22 30 -17 -22 c-47 -59 -178 -71 -306 -27 -64 22 -143 86 -145 118 -9
156 -13 148 63 144 l63 -3 -4 -56 -3 -56 47 7 c26 3 74 6 106 6 33 0 59 3 59
8 0 4 -42 6 -93 4 l-94 -3 2 88 c1 48 3 91 4 95 2 11 105 14 113 4 4 -6 12 -5
20 2z m518 -55 c0 -27 -3 -64 -6 -84 -6 -35 -7 -36 -53 -37 -25 -1 -62 -4 -82
-7 l-35 -6 -1 90 -2 91 90 0 89 0 0 -47z m546 -16 c1 -32 5 -61 7 -64 3 -2 -4
-16 -16 -30 -26 -30 -102 -84 -109 -77 -3 2 -18 0 -34 -7 -41 -16 -151 -14
-171 2 -13 11 -15 11 -9 1 7 -11 4 -11 -13 0 -12 7 -21 17 -22 23 0 5 -2 46
-3 90 l-3 80 54 1 c29 0 53 -3 53 -8 0 -5 5 -6 12 -2 6 4 8 3 5 -2 -3 -6 -2
-16 3 -23 10 -17 140 -6 140 12 0 7 3 23 7 36 5 18 3 22 -7 16 -7 -5 -11 -4
-7 1 3 5 29 9 58 9 l53 0 2 -58z"/>
</g>
</svg>
