<?xml version="1.0" standalone="no"?>
<!DOCTYPE svg PUBLIC "-//W3C//DTD SVG 20010904//EN"
 "http://www.w3.org/TR/2001/REC-SVG-20010904/DTD/svg10.dtd">
<svg version="1.0" xmlns="http://www.w3.org/2000/svg"
 width="225.000000pt" height="225.000000pt" viewBox="0 0 225.000000 225.000000"
 preserveAspectRatio="xMidYMid meet">
<metadata>
Created by potrace 1.10, written by Peter Selinger 2001-2011
</metadata>
<g transform="translate(0.000000,225.000000) scale(0.100000,-0.100000)"
fill="#000000" stroke="none">
<path d="M243 2053 c-7 -2 -26 -33 -43 -69 -33 -68 -67 -101 -141 -132 -78
-34 -72 -88 14 -126 62 -27 118 -88 136 -146 14 -47 47 -68 78 -52 11 6 34 41
52 77 33 67 59 91 146 131 31 15 41 25 43 47 4 35 -20 64 -60 72 -43 10 -108
72 -131 125 -31 72 -54 90 -94 73z m68 -84 c26 -58 94 -122 144 -139 32 -11
50 -33 40 -50 -3 -5 -26 -19 -51 -31 -59 -30 -104 -74 -135 -135 -35 -68 -52
-68 -84 0 -29 62 -73 105 -145 141 -27 13 -51 29 -54 34 -4 5 25 26 63 46 72
38 102 69 140 143 29 58 51 55 82 -9z"/>
<path d="M185 1866 c-36 -36 -65 -69 -65 -75 0 -16 133 -141 150 -141 19 0
140 120 140 140 0 20 -122 140 -143 140 -10 0 -47 -29 -82 -64z m105 20 c11
-19 41 -48 65 -64 l45 -30 -39 -27 c-22 -14 -52 -44 -67 -66 l-27 -39 -17 27
c-19 31 -86 93 -100 93 -21 0 -9 19 23 38 19 11 47 38 63 61 16 22 30 41 31
41 1 0 11 -15 23 -34z"/>
<path d="M615 1747 c-126 -61 -203 -181 -241 -375 -19 -99 -18 -306 2 -423 33
-193 123 -417 233 -576 84 -123 128 -164 183 -170 83 -8 130 48 184 221 30 94
89 138 164 121 48 -11 82 -54 114 -146 55 -159 89 -199 170 -199 34 0 46 7 93
53 l53 54 48 -24 c108 -53 247 -52 359 3 72 35 153 117 189 191 27 54 29 67
29 173 0 104 -3 121 -27 172 -49 105 -156 198 -257 224 l-46 11 -2 112 c-3
246 -62 425 -168 519 -104 92 -186 100 -399 39 -164 -47 -207 -47 -367 -2
-168 48 -248 54 -314 22z m313 -51 c152 -44 205 -45 343 -7 250 69 291 68 386
-8 112 -89 174 -266 174 -494 -1 -131 8 -148 82 -172 71 -22 123 -60 178 -128
62 -77 83 -148 77 -260 -5 -103 -36 -174 -106 -244 -113 -113 -282 -139 -444
-69 -21 9 -42 16 -48 16 -6 0 -32 -20 -58 -44 -56 -52 -81 -61 -127 -46 -40
13 -59 43 -102 162 -41 115 -69 150 -138 169 -83 23 -154 -26 -193 -132 -65
-178 -98 -218 -168 -205 -86 17 -257 290 -334 535 -56 178 -78 433 -50 582 37
198 119 326 242 379 40 17 158 3 286 -34z"/>
<path d="M1425 1706 c-27 -7 -90 -26 -140 -41 -132 -41 -224 -39 -380 9 -151
45 -211 47 -286 8 -66 -34 -119 -101 -154 -192 -27 -71 -30 -88 -46 -205 -38
-282 80 -681 277 -937 98 -127 144 -119 204 36 46 117 51 128 80 159 75 85
221 71 284 -26 14 -23 26 -46 26 -53 0 -23 61 -159 82 -181 33 -36 70 -30 113
18 33 37 36 44 30 80 -4 21 -4 39 -1 39 3 0 33 -20 66 -44 84 -62 144 -80 241
-73 97 6 159 38 234 118 125 136 125 329 -1 467 -92 101 -217 140 -344 108
-123 -32 -221 -125 -256 -243 -8 -29 -20 -53 -26 -53 -17 0 0 79 30 134 53 97
127 154 244 186 104 28 108 35 104 183 -8 348 -168 560 -381 503z m-539 -56
c192 -60 252 -60 447 -1 149 46 177 48 242 17 30 -15 70 -45 89 -68 71 -82
116 -254 116 -438 l0 -97 -51 -6 c-110 -13 -233 -97 -292 -198 -14 -24 -33
-73 -41 -107 -14 -61 -14 -64 5 -83 30 -30 58 -7 76 62 25 97 88 172 183 217
74 35 192 38 262 5 66 -30 133 -96 165 -162 24 -47 28 -69 28 -136 -1 -106
-27 -166 -106 -239 -73 -68 -132 -90 -232 -84 -84 4 -143 29 -211 89 -48 42
-71 46 -90 16 -8 -13 -7 -25 7 -49 l18 -32 -39 -38 c-27 -28 -43 -37 -56 -32
-19 7 -51 74 -81 164 -26 83 -52 118 -109 150 -71 41 -141 41 -213 0 -56 -32
-81 -74 -138 -228 -34 -91 -55 -105 -97 -65 -53 50 -165 231 -213 344 -89 212
-128 437 -108 622 32 279 147 430 313 409 19 -2 76 -17 126 -32z"/>
<path d="M880 1286 c-17 -22 -8 -58 18 -67 44 -16 77 47 38 73 -18 12 -43 9
-56 -6z"/>
<path d="M1282 1288 c-18 -18 -15 -56 6 -66 9 -6 27 -6 40 -1 38 14 24 79 -18
79 -9 0 -21 -5 -28 -12z"/>
<path d="M926 1064 c-53 -52 50 -118 184 -119 64 0 84 5 135 30 66 33 79 59
46 89 -19 18 -22 17 -72 -8 -72 -35 -151 -36 -219 -1 -58 30 -54 29 -74 9z
m189 -64 c31 0 73 8 101 20 49 22 66 20 42 -3 -27 -28 -61 -39 -132 -42 -60
-4 -80 0 -124 20 -68 31 -60 52 9 25 28 -11 74 -20 104 -20z"/>
<path d="M1947 815 c-21 -8 -51 -24 -67 -35 -31 -22 -130 -165 -130 -187 0
-17 -7 -16 -38 6 -15 10 -51 27 -80 37 l-54 19 -18 -23 c-27 -32 -16 -50 49
-78 60 -27 101 -59 101 -80 0 -17 37 -37 55 -30 7 2 32 44 55 93 62 134 85
162 158 195 51 23 62 32 62 53 0 14 -8 29 -19 35 -24 12 -26 12 -74 -5z m48
-34 c-3 -6 -26 -20 -51 -33 -55 -27 -99 -85 -148 -191 -19 -42 -38 -77 -42
-77 -4 0 -22 17 -39 38 -18 20 -53 46 -79 57 -25 11 -46 23 -46 28 0 14 33 7
87 -19 30 -14 61 -23 68 -20 8 3 36 38 63 78 70 102 121 147 170 148 13 0 21
-4 17 -9z"/>
<path d="M1410 576 c-28 -35 11 -93 48 -70 35 22 22 84 -18 84 -10 0 -23 -7
-30 -14z"/>
<path d="M2022 1713 c-7 -3 -19 -21 -28 -41 -21 -50 -51 -81 -102 -103 -40
-17 -43 -22 -40 -51 3 -28 11 -37 51 -58 54 -28 83 -61 93 -103 12 -54 77 -55
100 -2 21 50 61 92 100 105 69 23 64 81 -12 120 -36 18 -55 36 -71 68 -35 71
-51 81 -91 65z m71 -86 c24 -36 48 -59 81 -76 25 -14 45 -29 43 -34 -1 -5 -27
-25 -57 -45 -29 -21 -62 -53 -73 -72 -33 -60 -51 -64 -71 -17 -7 19 -31 48
-52 65 -98 80 -91 71 -70 85 10 7 32 21 50 32 17 11 45 42 61 68 17 25 35 47
42 47 7 0 28 -24 46 -53z"/>
<path d="M2002 1571 c-43 -40 -42 -70 3 -110 20 -17 40 -31 45 -31 16 0 80 67
80 85 0 20 -62 85 -82 85 -7 0 -28 -13 -46 -29z m79 -24 l27 -32 -29 -33 -29
-33 -34 34 -34 34 31 32 c18 17 34 31 37 30 3 0 17 -15 31 -32z"/>
</g>
</svg>
