<?xml version="1.0" standalone="no"?>
<!DOCTYPE svg PUBLIC "-//W3C//DTD SVG 20010904//EN"
 "http://www.w3.org/TR/2001/REC-SVG-20010904/DTD/svg10.dtd">
<svg version="1.0" xmlns="http://www.w3.org/2000/svg"
 width="240.000000pt" height="210.000000pt" viewBox="0 0 240.000000 210.000000"
 preserveAspectRatio="xMidYMid meet">
<metadata>
Created by potrace 1.10, written by Peter Selinger 2001-2011
</metadata>
<g transform="translate(0.000000,210.000000) scale(0.100000,-0.100000)"
fill="#000000" stroke="none">
<path d="M1421 1964 c-57 -15 -144 -58 -162 -81 -9 -9 -8 -17 1 -28 6 -8 10
-19 8 -26 -2 -6 -26 8 -53 30 -135 112 -304 138 -443 67 -96 -49 -160 -153
-169 -279 -7 -94 14 -176 73 -283 51 -95 54 -117 35 -261 -15 -108 -11 -157
26 -313 23 -93 84 -218 135 -273 37 -40 50 -47 81 -47 69 0 81 27 91 195 14
218 85 382 162 373 59 -7 90 -101 115 -353 13 -128 28 -171 64 -185 72 -27
170 101 239 310 47 145 59 231 45 322 -16 106 -9 168 29 225 69 104 94 169 99
256 17 263 -144 413 -376 351z m215 -37 c148 -78 186 -359 70 -512 -69 -90
-78 -138 -61 -311 11 -119 -11 -210 -87 -351 -70 -129 -95 -158 -132 -149 -20
5 -28 17 -41 64 -8 31 -24 75 -34 97 -11 22 -25 74 -31 115 -28 167 -86 225
-170 168 -57 -40 -113 -168 -146 -337 -13 -69 -30 -132 -38 -140 -28 -27 -60
0 -91 76 -56 137 -87 199 -113 226 -26 27 -27 33 -26 130 0 56 2 143 5 192 3
77 1 96 -17 130 -11 22 -33 64 -48 93 -42 80 -60 183 -46 257 32 162 128 252
282 263 107 7 183 -19 293 -102 l60 -45 22 21 c22 20 22 23 6 40 -19 22 -23
18 54 57 100 50 216 57 289 18z m-248 -1344 c-6 -7 -15 -13 -21 -13 -7 0 -7 4
1 12 15 15 16 32 2 23 -11 -7 -14 8 -3 18 12 12 32 -27 21 -40z m53 -3 c5 0 8
-11 7 -25 -2 -22 -4 -23 -18 -10 -22 20 -36 19 -20 0 15 -18 7 -19 -21 -4 -20
10 -20 11 -3 30 10 11 24 17 32 14 7 -3 18 -5 23 -5z m-456 -30 c-3 -5 1 -10
11 -10 13 0 11 -5 -9 -20 -14 -11 -31 -20 -38 -20 -7 0 -5 6 7 15 22 17 12 20
-18 4 -16 -9 -19 -8 -13 2 6 9 3 11 -8 6 -9 -3 -19 -2 -22 2 -7 12 21 22 39
15 8 -3 23 -1 33 5 23 13 26 13 18 1z"/>
<path d="M571 888 c-16 -35 -35 -83 -42 -108 -19 -63 -17 -295 2 -335 31 -65
213 -169 379 -216 160 -46 365 -45 546 2 89 23 236 92 306 143 40 30 48 42 58
88 31 143 22 277 -26 368 -42 80 -64 99 -64 56 0 -47 -52 -203 -101 -302 -103
-210 -244 -279 -332 -163 -34 46 -44 89 -62 264 -18 173 -26 217 -41 222 -6 2
-22 -36 -37 -84 -33 -112 -36 -126 -45 -254 -10 -121 -29 -171 -82 -206 -41
-29 -98 -30 -149 -3 -108 55 -213 265 -251 503 -7 43 -16 80 -21 82 -4 3 -21
-23 -38 -57z m35 -103 c0 -11 6 -33 12 -48 7 -16 12 -38 12 -50 0 -12 7 -31
15 -41 8 -11 15 -28 15 -38 0 -10 4 -18 10 -18 5 0 7 -7 4 -15 -4 -8 -2 -15 4
-15 6 0 13 -14 17 -30 4 -17 10 -28 15 -25 10 6 24 -31 16 -43 -3 -5 1 -18 10
-28 14 -18 14 -17 4 6 -9 22 -9 23 2 5 7 -11 27 -34 45 -52 17 -18 28 -33 25
-33 -14 -1 81 -40 97 -40 14 0 14 -2 1 -11 -11 -8 -5 -9 22 -4 28 4 37 3 34
-7 -1 -7 -1 -10 1 -5 3 4 11 7 19 7 8 0 14 5 14 11 0 7 9 9 21 6 15 -4 19 -2
15 9 -3 8 -2 12 3 9 5 -3 12 -1 16 5 4 6 11 7 17 4 7 -4 8 -2 4 4 -4 7 -2 12
3 12 6 0 12 10 12 23 1 19 2 19 6 3 10 -37 42 85 48 178 7 133 14 168 31 162
8 -3 14 -1 14 3 0 5 -5 11 -12 13 -8 3 -8 9 -1 22 9 16 11 14 17 -16 3 -20 4
-42 0 -51 -3 -8 -1 -25 5 -36 6 -11 12 -51 14 -90 1 -39 6 -67 11 -63 5 3 6
-2 3 -12 -4 -10 -1 -24 8 -33 13 -12 13 -18 3 -31 -11 -13 -10 -15 3 -10 11 4
20 -2 28 -19 7 -14 14 -23 18 -20 3 3 12 0 19 -8 18 -18 18 -31 0 -16 -10 8
-16 9 -21 1 -4 -6 -3 -10 2 -9 4 1 10 0 13 -1 18 -7 52 -11 100 -12 46 -1 62
4 102 31 26 17 56 44 68 59 12 15 18 21 14 13 -5 -10 -3 -12 5 -7 7 5 10 14 7
21 -2 7 2 16 10 19 8 3 14 12 14 20 0 7 7 16 15 20 8 3 15 12 15 21 0 8 5 15
11 15 6 0 8 9 4 21 -5 16 -4 19 5 14 8 -5 11 -4 7 2 -4 6 3 28 13 49 11 21 18
45 15 52 -3 7 0 10 5 7 6 -3 10 3 10 14 0 12 4 21 8 21 4 0 9 15 10 32 2 18 8
37 13 43 8 7 9 3 5 -15 l-7 -25 16 25 c10 14 14 17 11 7 -3 -10 -1 -28 5 -39
9 -16 8 -19 -3 -13 -7 3 -5 0 5 -8 13 -10 18 -27 16 -49 -1 -18 2 -41 6 -52 5
-11 3 -26 -3 -37 -6 -9 -7 -19 -3 -21 16 -6 -11 -132 -31 -146 -10 -7 -15 -19
-12 -25 4 -7 4 -9 0 -5 -4 3 -16 -1 -26 -9 -32 -27 -141 -83 -151 -77 -5 3
-21 -4 -35 -15 -14 -11 -41 -23 -60 -27 -19 -3 -36 -10 -39 -14 -2 -4 -17 -5
-32 -3 -23 4 -25 2 -13 -7 13 -10 12 -11 -6 -7 -12 2 -46 0 -75 -5 -70 -11
-220 -15 -206 -5 7 5 -3 5 -21 2 -47 -10 -124 3 -115 18 4 7 0 6 -10 -2 -11
-9 -17 -10 -17 -2 0 6 -9 11 -21 11 -11 0 -18 4 -15 9 4 5 -3 7 -14 4 -11 -3
-20 0 -20 6 0 5 -7 8 -15 5 -8 -4 -15 -1 -15 5 0 6 -5 11 -11 11 -5 0 -7 -4
-4 -10 8 -13 2 -13 -29 3 -14 8 -22 18 -18 22 4 4 -3 5 -16 2 -18 -4 -22 -2
-18 9 3 8 1 12 -4 9 -5 -3 -20 0 -32 7 -13 7 -25 13 -28 13 -15 2 -59 38 -55
45 3 5 0 12 -6 16 -8 4 -9 3 -5 -4 15 -25 -9 -10 -40 23 -29 32 -32 41 -31 94
1 33 -1 57 -5 54 -5 -2 -8 14 -8 37 0 23 3 39 8 37 4 -3 5 15 3 39 -2 27 1 44
8 44 6 0 8 7 5 15 -4 8 -1 21 5 29 6 7 7 16 3 21 -4 4 2 5 13 3 12 -2 20 -12
21 -23z"/>
</g>
</svg>
