<?xml version="1.0" standalone="no"?>
<!DOCTYPE svg PUBLIC "-//W3C//DTD SVG 20010904//EN"
 "http://www.w3.org/TR/2001/REC-SVG-20010904/DTD/svg10.dtd">
<svg version="1.0" xmlns="http://www.w3.org/2000/svg"
 width="232.000000pt" height="218.000000pt" viewBox="0 0 232.000000 218.000000"
 preserveAspectRatio="xMidYMid meet">
<metadata>
Created by potrace 1.10, written by Peter Selinger 2001-2011
</metadata>
<g transform="translate(0.000000,218.000000) scale(0.100000,-0.100000)"
fill="#000000" stroke="none">
<path d="M917 2173 c-14 -14 -4 -22 106 -83 354 -197 517 -366 649 -671 l39
-92 -10 -86 c-6 -48 -20 -122 -31 -165 -15 -55 -18 -82 -11 -89 17 -17 27 1
44 73 55 229 52 274 -30 441 -137 278 -294 433 -628 618 -115 64 -118 65 -128
54z"/>
<path d="M799 2064 c-119 -50 -207 -113 -319 -230 -121 -126 -191 -238 -251
-399 -26 -70 -43 -97 -120 -185 -76 -88 -92 -121 -97 -210 -6 -99 8 -143 68
-226 58 -79 68 -116 47 -167 -13 -30 -13 -38 -2 -47 20 -17 45 37 45 97 0 51
-12 76 -73 156 -61 80 -72 191 -27 282 12 22 42 64 69 93 l48 53 7 -73 c17
-182 59 -366 104 -454 75 -148 238 -319 458 -481 84 -62 137 -83 209 -83 92 0
156 35 323 174 160 134 228 203 215 217 -10 10 -28 -2 -88 -57 -120 -109 -285
-241 -340 -271 -70 -38 -150 -38 -223 2 -131 71 -393 313 -477 440 -75 114
-112 243 -140 484 l-15 129 34 89 c69 181 135 290 249 410 92 97 183 164 284
210 75 34 97 53 75 66 -4 3 -32 -6 -63 -19z"/>
<path d="M452 1623 c-14 -3 -22 -11 -20 -20 2 -13 20 -15 108 -14 118 2 177
-13 222 -56 22 -21 31 -24 40 -15 19 19 -1 43 -66 76 -50 26 -68 30 -159 32
-56 1 -112 0 -125 -3z"/>
<path d="M1188 1616 c-53 -14 -128 -62 -128 -82 0 -26 21 -24 57 4 55 43 93
52 214 52 107 0 138 9 100 29 -27 15 -185 13 -243 -3z"/>
<path d="M392 1358 c-24 -12 -26 -46 -1 -39 45 13 71 12 95 -4 24 -15 24 -18
10 -34 -19 -21 -21 -51 -3 -51 7 0 21 10 31 21 15 18 25 21 67 16 53 -7 208
26 221 47 16 24 -13 27 -84 7 -101 -28 -126 -27 -202 14 -69 37 -96 41 -134
23z"/>
<path d="M1407 1339 c-63 -42 -113 -47 -211 -19 -43 12 -80 19 -83 16 -28 -28
92 -69 205 -70 59 -1 75 -4 83 -18 6 -10 17 -18 24 -18 20 0 19 34 -1 51 -14
11 -13 15 8 31 26 20 60 23 88 8 13 -7 21 -6 29 4 16 19 -8 37 -56 42 -31 4
-47 -1 -86 -27z"/>
<path d="M1516 1194 c-8 -21 1 -34 24 -34 22 0 33 23 17 39 -16 16 -34 14 -41
-5z"/>
<path d="M1170 1174 c-11 -12 -10 -18 3 -32 16 -15 18 -15 34 0 13 14 14 20 3
32 -7 9 -16 16 -20 16 -4 0 -13 -7 -20 -16z"/>
<path d="M1275 1130 c-3 -5 14 -31 38 -57 35 -39 47 -61 60 -118 34 -143 126
-284 255 -392 87 -72 132 -127 284 -343 101 -144 194 -213 286 -213 50 0 58 3
84 32 23 26 28 40 28 84 0 105 -36 152 -325 422 -70 66 -139 138 -154 160
-109 170 -253 289 -409 336 -31 9 -54 26 -79 56 -35 42 -56 53 -68 33z m238
-167 l69 -34 -59 -54 c-32 -29 -62 -50 -66 -46 -10 10 -57 148 -57 168 0 18
22 12 113 -34z m168 -130 c37 -38 81 -90 99 -118 59 -89 117 -150 257 -273
180 -157 241 -239 243 -323 0 -42 -35 -79 -76 -79 -83 0 -175 75 -282 230
-103 149 -207 274 -269 321 -31 24 -83 78 -116 119 l-60 75 64 57 c35 32 66
58 69 58 3 0 35 -30 71 -67z"/>
<path d="M1430 1124 c-11 -12 -10 -18 3 -31 22 -23 52 0 36 28 -12 23 -22 24
-39 3z"/>
<path d="M1532 1098 c-15 -18 1 -41 24 -36 23 4 26 41 3 46 -9 1 -21 -3 -27
-10z"/>
<path d="M840 980 c0 -32 72 -73 126 -72 72 1 152 63 113 87 -6 4 -20 -2 -32
-13 -55 -50 -112 -52 -161 -7 -33 30 -46 32 -46 5z"/>
<path d="M812 724 c-52 -54 -47 -66 36 -90 70 -21 218 -15 280 11 23 9 42 21
42 25 0 4 -17 27 -38 50 l-38 43 -120 3 -119 3 -43 -45z m192 4 c59 2 73 -1
93 -20 12 -11 20 -24 18 -29 -3 -4 -37 -13 -75 -20 -56 -10 -84 -10 -140 0
-38 7 -72 16 -75 20 -5 9 32 46 55 54 8 3 24 2 35 -1 11 -4 51 -6 89 -4z"/>
<path d="M822 563 c2 -10 18 -28 37 -40 28 -19 47 -23 110 -23 67 0 83 4 119
27 23 15 42 31 42 36 0 19 -31 17 -60 -5 -45 -33 -151 -33 -197 0 -37 26 -56
28 -51 5z"/>
</g>
</svg>
