<?xml version="1.0" standalone="no"?>
<!DOCTYPE svg PUBLIC "-//W3C//DTD SVG 20010904//EN"
 "http://www.w3.org/TR/2001/REC-SVG-20010904/DTD/svg10.dtd">
<svg version="1.0" xmlns="http://www.w3.org/2000/svg"
 width="225.000000pt" height="225.000000pt" viewBox="0 0 225.000000 225.000000"
 preserveAspectRatio="xMidYMid meet">
<metadata>
Created by potrace 1.10, written by Peter Selinger 2001-2011
</metadata>
<g transform="translate(0.000000,225.000000) scale(0.100000,-0.100000)"
fill="#000000" stroke="none">
<path d="M615 1921 c-67 -17 -127 -74 -144 -138 -7 -24 -11 -235 -11 -589 0
-602 2 -623 57 -676 61 -58 57 -58 613 -58 487 0 513 1 549 20 48 24 87 70
101 118 6 23 10 244 10 603 l0 565 -26 52 c-19 39 -38 59 -72 80 l-47 27 -500
2 c-275 1 -513 -2 -530 -6z m1066 -44 c18 -12 44 -38 56 -56 l23 -34 0 -597 0
-597 -23 -34 c-12 -19 -42 -44 -67 -56 -44 -23 -45 -23 -545 -23 -466 0 -503
2 -541 19 -23 10 -52 34 -65 52 l-24 34 -3 601 -2 600 23 34 c12 19 38 45 56
57 l34 23 522 0 522 0 34 -23z"/>
<path d="M700 1790 c0 -6 37 -10 90 -10 53 0 90 4 90 10 0 6 -37 10 -90 10
-53 0 -90 -4 -90 -10z"/>
<path d="M975 1790 c4 -6 102 -10 261 -10 163 0 254 4 254 10 0 6 -94 10 -261
10 -171 0 -258 -3 -254 -10z"/>
<path d="M870 1579 c-125 -11 -163 -23 -195 -61 -26 -31 -27 -34 -23 -149 4
-157 0 -153 166 -157 70 -2 159 -6 197 -9 51 -3 75 -1 89 10 16 12 23 12 48 0
19 -10 48 -13 91 -10 34 3 119 6 189 8 165 5 162 2 166 152 3 125 -9 162 -65
190 -61 32 -434 46 -663 26z m479 -20 c145 -11 184 -21 212 -55 11 -14 11 -18
1 -22 -7 -2 -35 -19 -62 -37 l-50 -34 -6 25 c-4 13 -15 31 -27 39 -23 16 -45
8 -89 -33 -26 -24 -28 -24 -28 -6 0 32 -37 64 -74 64 -42 0 -60 -20 -82 -95
l-17 -60 -18 58 c-22 73 -43 97 -84 97 -34 0 -58 -20 -70 -58 l-7 -24 -26 25
c-44 40 -66 48 -89 32 -12 -8 -24 -26 -27 -40 l-7 -26 -28 24 c-16 13 -42 29
-60 36 -38 16 -39 24 -5 50 54 42 360 61 643 40z m-285 -101 c8 -13 25 -62 37
-110 29 -114 25 -120 -80 -116 l-76 3 -3 37 c-3 37 32 173 50 196 17 20 56 14
72 -10z m198 5 c9 -10 26 -59 39 -110 29 -120 25 -125 -80 -121 l-76 3 -3 35
c-4 35 32 175 51 198 14 18 51 15 69 -5z m-491 -55 c13 -11 15 -28 11 -93 l-4
-81 -47 6 c-41 4 -46 8 -52 35 -9 40 -11 170 -3 178 7 6 66 -22 95 -45z m120
31 c44 -31 49 -48 33 -108 -7 -30 -11 -65 -8 -77 6 -22 3 -24 -32 -24 -75 0
-84 7 -84 59 0 41 22 140 37 164 7 12 23 8 54 -14z m541 -34 c9 -28 17 -75 17
-106 1 -64 -4 -69 -74 -69 -44 0 -44 0 -39 33 3 17 -2 54 -10 81 l-15 49 34
34 c46 46 66 40 87 -22z m147 -54 c-2 -49 -8 -94 -14 -99 -5 -5 -29 -12 -52
-15 l-42 -5 0 62 c-1 33 -2 70 -4 81 -3 24 91 91 106 76 5 -5 7 -50 6 -100z"/>
<path d="M790 1082 c-41 -1 -85 -4 -97 -7 -30 -7 -43 -54 -43 -162 0 -153 20
-174 188 -192 128 -14 467 -14 585 -1 106 12 139 27 161 74 22 46 22 214 1
256 -14 27 -20 30 -68 30 -28 1 -121 3 -205 6 -110 5 -156 3 -167 -6 -10 -8
-19 -8 -34 -1 -18 10 -104 11 -321 3z m126 -35 c-3 -12 1 -49 9 -82 l14 -60
-40 -38 c-32 -31 -43 -36 -54 -27 -20 17 -45 110 -45 169 l0 50 58 4 c31 2 59
4 61 5 2 1 1 -8 -3 -21z m188 7 c20 -19 20 -14 -5 -115 -26 -101 -32 -115 -59
-122 -33 -8 -59 23 -80 98 -23 80 -25 126 -8 143 18 18 133 15 152 -4z m200 0
c20 -20 20 -20 -5 -117 -25 -97 -32 -113 -59 -120 -32 -8 -57 23 -79 99 -24
81 -26 125 -9 142 18 18 133 15 152 -4z m145 -52 c0 -63 -28 -163 -46 -169 -6
-2 -29 12 -51 32 l-40 35 15 48 c8 26 12 63 10 82 l-4 35 58 -3 59 -4 -1 -56z
m-667 -7 c1 -36 2 -73 2 -82 1 -21 -87 -78 -105 -68 -15 10 -6 179 11 200 7 9
29 15 51 15 l39 0 2 -65z m782 43 c19 -27 23 -183 5 -193 -6 -4 -33 8 -60 26
-45 31 -49 36 -43 64 4 17 7 51 6 78 l-1 47 39 0 c29 0 43 -6 54 -22z m-414
-165 c11 -44 49 -83 82 -83 26 0 68 44 68 71 0 19 4 18 41 -15 56 -51 87 -43
112 29 2 5 18 -3 36 -18 18 -15 43 -30 57 -33 13 -3 24 -9 24 -13 0 -19 -53
-54 -92 -62 -81 -17 -455 -23 -597 -9 -146 13 -173 21 -196 57 -14 21 -14 23
3 23 10 0 39 13 65 30 l48 30 10 -27 c20 -53 45 -55 97 -8 l38 34 12 -33 c14
-38 57 -62 92 -51 28 9 45 39 60 105 14 59 19 56 40 -27z"/>
</g>
</svg>
