<?xml version="1.0" standalone="no"?>
<!DOCTYPE svg PUBLIC "-//W3C//DTD SVG 20010904//EN"
 "http://www.w3.org/TR/2001/REC-SVG-20010904/DTD/svg10.dtd">
<svg version="1.0" xmlns="http://www.w3.org/2000/svg"
 width="225.000000pt" height="225.000000pt" viewBox="0 0 225.000000 225.000000"
 preserveAspectRatio="xMidYMid meet">
<metadata>
Created by potrace 1.10, written by Peter Selinger 2001-2011
</metadata>
<g transform="translate(0.000000,225.000000) scale(0.100000,-0.100000)"
fill="#000000" stroke="none">
<path d="M1727 2123 c-14 -14 -6 -38 23 -68 l31 -32 -87 -78 c-52 -48 -95 -79
-109 -80 -15 0 -120 -94 -339 -304 -174 -167 -316 -308 -316 -314 0 -6 14 -25
30 -42 l30 -31 -82 -82 -82 -82 34 -35 34 -35 -62 -63 c-34 -34 -62 -68 -62
-74 0 -7 9 -17 20 -23 18 -10 29 -3 85 51 l64 62 36 -32 c44 -38 46 -37 140
58 l69 71 32 -31 c18 -17 39 -29 48 -27 9 1 158 140 331 306 250 240 315 309
313 326 -2 17 18 42 80 101 l83 78 27 -27 c16 -14 38 -26 50 -26 25 0 38 22
25 43 -4 7 -97 100 -206 205 -181 175 -220 205 -240 185z m273 -308 l25 -27
-86 -82 -86 -81 -102 96 -102 95 88 81 88 81 75 -68 c41 -37 86 -80 100 -95z
m-292 -145 l121 -115 -237 -227 -237 -227 -121 117 c-67 64 -121 119 -122 122
0 3 22 25 49 49 l49 44 28 -26 c34 -33 68 -35 78 -5 5 17 -1 28 -26 51 l-33
29 36 36 36 35 36 -31 c29 -26 39 -30 55 -22 28 15 25 44 -9 73 l-29 24 39 39
39 38 16 -22 c20 -28 48 -44 68 -36 26 10 19 50 -13 77 l-29 24 36 37 c20 20
40 35 43 34 3 -2 61 -55 127 -118z m-518 -497 l121 -116 -25 -25 -25 -26 -124
120 -124 119 20 23 c11 12 24 22 28 22 4 0 62 -52 129 -117z m-102 -91 l52
-48 -63 -62 -63 -62 -49 50 -49 50 59 60 c33 33 60 60 60 60 1 0 24 -22 53
-48z"/>
<path d="M235 936 c-76 -34 -119 -124 -118 -246 1 -140 38 -340 83 -444 37
-86 95 -120 134 -77 9 10 28 65 42 122 40 164 44 179 53 179 10 0 25 -51 46
-160 23 -114 38 -148 69 -156 78 -19 143 121 181 389 18 128 19 179 2 244 -18
67 -52 116 -98 142 -47 27 -88 26 -150 -1 l-50 -21 -52 21 c-60 25 -99 27
-142 8z m114 -66 c55 -25 104 -25 160 0 24 11 49 20 56 20 26 0 74 -51 91 -96
23 -60 14 -229 -20 -376 -24 -103 -61 -206 -71 -196 -3 2 -14 51 -26 109 -23
119 -48 183 -77 198 -70 37 -105 -15 -148 -214 -9 -44 -19 -84 -22 -89 -8 -15
-40 56 -61 139 -30 113 -54 292 -48 356 6 68 38 133 75 153 35 20 39 19 91 -4z"/>
</g>
</svg>
