<?xml version="1.0" standalone="no"?>
<!DOCTYPE svg PUBLIC "-//W3C//DTD SVG 20010904//EN"
 "http://www.w3.org/TR/2001/REC-SVG-20010904/DTD/svg10.dtd">
<svg version="1.0" xmlns="http://www.w3.org/2000/svg"
 width="203.000000pt" height="249.000000pt" viewBox="0 0 203.000000 249.000000"
 preserveAspectRatio="xMidYMid meet">
<metadata>
Created by potrace 1.10, written by Peter Selinger 2001-2011
</metadata>
<g transform="translate(0.000000,249.000000) scale(0.100000,-0.100000)"
fill="#000000" stroke="none">
<path d="M663 2483 c-17 -6 -16 -29 3 -83 22 -62 14 -159 -35 -410 -76 -389
-88 -577 -51 -761 26 -127 41 -173 96 -286 54 -113 138 -225 241 -324 102 -98
143 -125 314 -210 257 -128 325 -231 217 -330 -34 -33 -38 -40 -28 -58 15 -30
30 -26 78 19 97 93 73 218 -62 320 -31 23 -56 47 -56 54 0 20 67 84 129 124
33 22 104 58 158 82 203 87 262 118 308 165 l46 46 -7 56 c-5 42 -4 54 5 49 9
-6 10 0 5 21 -12 47 -31 68 -100 108 -74 43 -82 56 -63 91 11 21 10 27 -5 42
-16 16 -19 16 -42 -11 -27 -32 -32 -81 -10 -113 8 -11 40 -33 70 -48 69 -35
96 -67 96 -113 0 -76 -62 -128 -245 -202 -175 -72 -346 -185 -380 -251 -9 -17
-17 -30 -19 -30 -2 0 -48 22 -102 49 -220 109 -383 269 -488 480 -58 115 -81
186 -101 310 -30 179 -17 322 69 784 14 76 26 154 26 172 0 19 4 36 10 40 5 3
46 -8 90 -26 162 -62 304 -200 360 -348 54 -146 143 -201 409 -252 79 -15 125
-28 129 -38 3 -7 -14 -51 -36 -96 -23 -46 -42 -90 -42 -98 0 -20 47 -57 83
-64 15 -3 32 -15 38 -25 9 -17 4 -28 -38 -70 -26 -27 -72 -65 -100 -85 -56
-38 -63 -52 -38 -73 13 -11 21 -10 42 1 37 20 191 166 198 189 11 36 -21 88
-69 112 -25 12 -46 25 -46 29 0 4 16 38 35 76 41 80 43 112 12 149 -20 23 -41
30 -170 55 -173 33 -254 66 -303 122 -19 23 -34 46 -34 53 0 6 -18 47 -40 91
-76 153 -230 285 -396 339 l-82 26 -11 57 c-11 54 -34 102 -49 100 -4 0 -13
-3 -19 -6z"/>
<path d="M547 2263 c-4 -3 -7 -17 -7 -31 0 -63 -57 -295 -116 -472 -112 -335
-142 -493 -131 -695 8 -169 57 -290 171 -429 139 -168 372 -327 586 -399 114
-39 146 -43 158 -20 16 28 5 36 -83 61 -266 77 -530 260 -664 462 -89 132
-117 252 -107 445 8 158 31 261 111 501 94 284 150 522 132 568 -6 16 -38 22
-50 9z"/>
<path d="M943 1875 c-50 -43 -126 -141 -160 -208 -19 -38 -22 -52 -12 -63 21
-25 36 -15 75 54 21 37 72 100 112 141 41 42 72 81 70 90 -6 28 -42 22 -85
-14z"/>
<path d="M307 1854 c-4 -4 -7 -22 -7 -40 0 -71 -29 -130 -139 -284 -102 -143
-136 -234 -149 -393 -6 -82 -5 -100 8 -112 11 -10 20 -11 33 -4 13 8 17 24 17
77 1 151 37 245 175 448 88 129 119 202 113 271 -2 29 -8 39 -23 41 -12 2 -24
0 -28 -4z"/>
<path d="M1162 1677 c-6 -6 -14 -25 -18 -41 -11 -45 -81 -109 -139 -127 -35
-12 -50 -22 -50 -34 0 -90 214 34 246 142 10 34 9 45 -1 58 -15 18 -24 19 -38
2z"/>
<path d="M987 1165 c-1 -5 -1 -43 1 -82 3 -68 5 -73 27 -73 21 0 22 2 14 47
-5 25 -8 48 -6 49 2 2 69 -47 149 -107 134 -101 169 -119 167 -86 0 12 -230
184 -269 201 -36 16 -21 25 34 19 49 -5 54 -4 52 13 -3 21 -4 22 -98 26 -41 3
-69 0 -71 -7z"/>
</g>
</svg>
