<svg version="1.0" xmlns="http://www.w3.org/2000/svg"
 this.text="50.000000pt" height="50.000000pt" viewBox="0 0 50.000000 50.000000"
 preserveAspectRatio="xMidYMid meet">
<g transform="translate(0.000000,50.000000) scale(0.100000,-0.100000)"
fill="#002856" stroke="none">
<path d="M103 460 c-66 -40 -82 -132 -39 -219 14 -26 32 -76 41 -112 22 -85
38 -109 75 -109 38 0 46 17 55 113 4 42 10 77 15 77 5 0 11 -35 15 -77 9 -96
17 -113 55 -113 37 0 53 24 75 109 9 36 27 86 41 112 43 87 27 179 -39 219
-47 29 -247 29 -294 0z m151 -31 c30 -24 67 -19 46 6 -11 13 -7 15 25 15 29 0
45 -8 71 -34 43 -43 46 -94 9 -165 -13 -27 -31 -78 -40 -113 -20 -77 -28 -93
-48 -85 -10 4 -16 29 -21 86 -7 76 -22 111 -46 111 -24 0 -39 -35 -46 -111 -5
-57 -11 -82 -21 -86 -20 -8 -28 8 -48 85 -9 35 -27 86 -40 113 -37 71 -34 122
9 165 29 29 41 34 79 34 30 0 53 -7 71 -21z"/>
</g>
</svg>
